<svg width="190" height="234" viewBox="0 0 190 234" fill="none" xmlns="http://www.w3.org/2000/svg" style="width: 190px;">
<path d="M18.4583 77.3954L8.31175 68.6868L2.09394 76.2946L3.52256 77.5087L8.60395 71.2281C11.8508 74.6436 14.3997 79.4026 17.9226 80.2928C20.0493 80.827 23.6858 75.3234 26.7379 72.4583C29.6114 75.2425 32.4037 80.0177 35.9104 80.5518C38.2968 80.9565 41.6736 75.5339 44.6121 72.7173C53.6547 83.0123 53.6546 83.0123 62.2102 72.7173C71.4963 83.1903 71.4963 83.1903 81.0747 71.4709C82.1299 84.6957 93.6726 79.7263 98.6404 82.5752C90.5231 133.37 56.9665 165.275 19.0914 193.845C8.58772 201.76 1.80171 211.521 1.00622 224.859C1.02649 227.383 1.2163 229.903 1.57441 232.402L3.65241 233.147C5.27586 231.026 7.54869 229.133 8.52276 226.672C14.4483 212.33 25.3417 202.311 37.55 193.651C54.7261 181.446 72.4704 170.034 89.5004 157.554C94.3707 153.976 99.6307 148.408 100.865 142.904C105.946 120.242 116.644 101.919 136.223 88.8234C140.087 86.2335 142.717 81.7497 147.084 76.7479L186.534 115.144C188.027 108.669 185.933 100.915 180.901 94.7965C173.92 86.2983 165.526 78.9655 158.042 70.8558C155.266 67.845 153.48 63.944 150.964 60.6256C147.928 56.6274 145.396 51.2534 141.223 49.1976C123.901 40.5214 106.53 31.6023 88.3315 25.1113C63.168 16.1275 37.274 9.23183 11.6723 1.49443C8.65696 0.424401 5.38132 0.322512 2.30498 1.20306L26.5918 18.4099C25.4878 20.8703 24.3189 23.4926 22.5494 27.4098C39.0598 29.5303 55.0183 19.6724 71.4639 27.2804C70.1976 31.7318 68.9962 35.989 67.389 41.6221C76.8862 41.9134 86.6106 34.953 94.5655 42.917C101.189 49.5375 107.358 56.6112 113.722 63.4745C113.609 64.4134 113.511 65.3361 113.414 66.2587C108.754 66.6796 103.77 66.2587 99.5495 67.8774C95.3286 69.4961 92.1791 72.944 88.5101 75.631C86.0587 73.4134 83.0878 68.6382 79.6785 68.2983C76.9187 68.0231 73.6231 73.1544 70.6034 75.7767C68.3469 73.5429 65.5383 68.5573 62.5836 68.4763C59.6289 68.3954 56.5606 73.2191 52.8429 76.4242C50.6513 74.1256 47.6154 68.5249 44.8556 68.6544C41.6087 68.8162 38.5566 73.9152 35.4233 76.8774C26.397 67.0842 26.397 67.0843 18.4583 77.3954Z" stroke="#D2AD29" stroke-width="0.5" stroke-miterlimit="10"/>
</svg>
