<svg width="262" height="121" viewBox="0 0 262 121" fill="none" xmlns="http://www.w3.org/2000/svg">
<path d="M18.4714 64.6493C14.3442 63.0902 11.5928 62.0879 7.14921 60.4732C11.7304 58.8862 14.4268 57.9536 18.0862 56.6729L18.0862 31.268C49.5764 37.8663 80.1861 40.7618 111.264 36.1124C112.103 30.2797 109.792 28.818 104.385 28.999C72.3583 30.0848 41.2946 25.672 12.2119 10.972C9.51942 9.68683 6.94181 8.16848 4.50787 6.43394C3.50359 5.68223 3.28347 3.87258 2.70567 2.53621C4.08139 2.53621 5.74601 1.84019 6.83283 2.38309C25.9359 11.6311 46.8208 16.4985 67.9972 16.6376C81.4655 16.8743 94.9751 15.5379 108.43 14.4939C111.041 14.0059 113.413 12.6369 115.157 10.6101C123.205 1.86803 133.041 -1.13878 143.001 2.53622C153.195 6.29474 159.028 15.2178 158.918 27.593C158.85 35.0126 160.569 41.2073 167.255 45.4112C169.006 46.8328 170.417 48.6363 171.382 50.6871C173.955 55.0163 176.459 54.724 179.279 50.2277C182.319 54.3064 185.429 55.42 188.152 50.5618C193.531 54.905 195.911 54.0419 199.282 47.3462C201.249 43.4624 203.093 39.3141 205.899 36.0984C214.552 26.1871 228.145 26.3541 236.509 36.53C246.263 48.3902 247.033 61.8931 241.764 75.7996C238.27 85.0706 231.749 91.7107 221.39 91.9334C211.031 92.1561 204.716 85.5022 200.41 76.6209C199.268 74.4468 198.009 72.337 196.641 70.301C194.096 66.2641 191.482 66.1249 188.827 70.9414C185.745 67.2524 182.622 65.3732 179.609 71.3172C176.115 65.3036 173.391 67.2246 170.529 70.9831C168.782 73.2939 166.003 74.9365 164.71 77.4144C162.371 81.9664 159.317 86.8664 159.207 91.6968C158.891 103.724 155.218 113.106 143.827 117.965C133.275 122.475 123.783 119.426 114.441 109.445C113.067 108.004 111.283 107.031 109.338 106.661C74.4631 101.413 40.3178 103.014 7.69953 118.229C6.68665 118.751 5.60824 119.13 4.49409 119.357C3.91629 119.454 3.24218 118.925 0.999761 118.034C3.7512 115.751 5.58089 113.705 7.87834 112.466C27.7712 101.107 49.3838 95.2882 71.9455 93.1445C82.8687 92.1144 93.957 91.9752 104.88 91.9334C109.558 91.9334 111.869 90.6945 111.14 84.9732C80.3925 80.6717 49.8378 82.8851 18.3614 89.8732L18.4714 64.6493ZM203.217 60.4036C205.5 66.5007 206.793 72.5144 209.82 77.4283C214.731 85.4326 223.426 85.3351 229.259 78.0269C236.33 69.1874 236.248 51.745 229.108 42.8499C223.495 35.8896 214.951 35.4999 210.123 43.0448C206.945 48.07 205.569 54.3342 203.217 60.4036ZM70.8862 53.6661C83.364 61.9209 93.1454 54.0558 103.188 49.7544C104.908 49.0166 105.94 46.5388 107.219 44.8544L106.146 43.1144C84.726 43.1144 63.306 43.1144 41.8861 43.3092C40.7718 43.3092 38.4468 46.5666 38.7907 47.4854C40.0289 50.9098 41.5422 55.8376 44.1423 56.7286C47.5266 57.8561 51.9977 55.6428 57.0053 54.6823C61.27 59.6519 65.7823 59.6101 70.8862 53.6661ZM63.1135 67.1967C58.2709 61.8374 53.4834 61.4198 48.1181 67.1967L39.1072 62.77C38.7495 65.4567 38.5569 66.3615 38.5156 67.2663C38.0479 77.7624 38.0616 77.7763 48.1456 77.8041C61.3892 77.8041 74.6374 77.8041 87.8901 77.8041L106.187 77.8041L107.357 75.382C103.119 72.0968 98.9509 66.1527 94.6449 66.0553C84.3132 65.7908 73.3488 59.1368 63.1135 67.1967V67.1967Z" stroke="#FFCE22" stroke-width="0.5" stroke-miterlimit="10"/>
</svg>


