<svg width="270" height="265" viewBox="0 0 270 265" fill="none" xmlns="http://www.w3.org/2000/svg" style="width: 270px;">
<path d="M14.9066 2.4809C18.2082 6.63134 21.2828 10.9745 24.8535 14.8734C39.0255 30.359 53.3404 45.7021 67.5965 61.1039C68.7266 62.2317 70.3216 63.3875 70.591 64.7298C71.0083 66.8234 71.2703 69.8353 70.1112 71.0769C68.9522 72.3184 65.8007 72.343 63.8792 71.7335C61.9578 71.1241 60.4511 69.134 58.8375 67.6745C41.0318 51.6036 23.24 35.5244 5.46232 19.4368C4.1914 18.253 2.50729 17.6158 0.779852 17.665C6.48966 24.8394 11.7624 32.4161 17.9848 39.0957C36.4992 58.9822 55.2292 78.6533 74.1749 98.1093C76.6206 100.653 79.5946 102.631 82.883 103.9C86.1714 105.169 89.6926 105.699 93.1935 105.451C95.3058 105.59 97.2991 106.509 98.7846 108.029C113.194 122.197 127.492 136.467 141.677 150.836C143.139 152.295 143.256 155.011 144.222 157.032C145.974 160.676 146.989 165.412 149.858 167.688C171.178 184.359 189.407 204.641 203.696 227.591C213.125 242.569 227.169 251.806 243.2 258.363C245.057 259.101 246.982 259.646 248.947 259.989C256.906 261.408 261.386 257.309 259.18 249.623C254.818 234.201 247.145 220.506 234.321 210.323C219.282 198.417 203.63 187.308 189.036 174.94C181.175 168.285 174.791 159.85 168.046 151.962C164.618 147.937 161.062 145.092 155.468 145.078C153.376 144.878 151.413 143.947 149.928 142.45C135.671 128.422 121.498 114.311 107.443 100.049C105.811 98.421 105.137 95.7525 104.288 93.4625C102.272 87.9953 101.719 81.4232 98.2398 77.179C89.9617 67.1789 80.9772 57.7807 71.3565 49.0578C53.3856 32.6655 34.8436 16.8941 16.5367 0.870949L14.9066 2.4809Z" stroke="#D2AD29" stroke-width="0.5" stroke-miterlimit="10"/>
</svg>
