<svg width="210" height="150" viewBox="0 0 210 150" fill="none" xmlns="http://www.w3.org/2000/svg">
<path d="M1.32353 147.576C8.03249 139.913 15.0093 133.137 22.6535 126.824C37.0516 114.922 51.7575 103.371 66.791 92.2949C107.424 62.3471 148.349 32.7832 189.02 2.87222C193.914 -0.698575 198.359 -0.213273 203.306 2.35623C207.872 4.7243 208.452 7.87045 204.829 11.2918C202.945 12.8737 200.936 14.3001 198.821 15.5583C195.261 17.9854 191.64 20.3291 188.116 22.8048C178.868 29.2973 169.642 35.8237 160.437 42.3841C158.468 43.8096 156.578 45.3387 154.771 46.9655C151.443 49.9162 151.576 53.7825 153.754 57.2962C155.564 60.2374 154.625 61.3804 152.428 62.9519C133.113 76.7581 113.945 90.7657 94.5689 104.489C75.8591 117.736 57.1189 130.942 36.2776 140.822C29.0464 144.25 25.9562 145.929 15.6222 147.991C12.293 148.655 4.1437 149.632 1.32353 147.576Z" stroke="#D2AD29" stroke-width="0.5" stroke-miterlimit="10"/>
</svg>
