<svg width="82" height="27" viewBox="0 0 82 27" fill="none" xmlns="http://www.w3.org/2000/svg">
<path d="M81 13.5058C78.1173 15.9754 75.597 18.7697 71.3235 18.296C69.5012 18.0831 68.5154 19.1796 67.7641 20.8455C64.9347 27.1261 59.0681 27.7648 54.9759 22.224C52.7432 19.1955 49.9192 18.0991 46.2692 18.147C40.0775 18.2268 33.8645 17.7691 27.6889 18.1097C23.7511 18.328 19.8987 19.7757 15.9663 20.2973C11.2719 20.92 7.01981 19.2328 3.178 16.7152C0.279323 14.8364 0.268666 12.2018 3.178 10.3282C8.45849 6.88989 14.2452 5.56991 20.4422 7.3636C28.3962 9.70214 36.7804 10.1919 44.953 8.79535C45.4839 8.73068 46.0207 8.73068 46.5516 8.79535C50.1163 9.05616 52.8391 7.77343 55.0078 4.84073C59.2226 -0.854358 64.8708 -0.093238 68.0359 6.30974C68.5687 7.37425 70.082 8.65165 71.0571 8.58245C75.3518 8.24714 78.0587 10.8286 81 13.5058ZM54.7947 18.0672C57.2991 19.2009 59.505 20.4463 61.8709 21.1915C63.7358 21.7823 64.8228 20.8775 64.7269 18.658C64.5884 15.2303 64.5831 11.7866 64.7269 8.35891C64.8175 6.31506 63.9383 5.31443 62.1266 5.84668C59.6809 6.57054 57.379 7.76811 54.7467 8.87519C57.0007 11.0894 56.9794 16.002 54.7947 18.0672Z" stroke="#D2AD29" stroke-width="0.3" stroke-miterlimit="10"/>
</svg>
