<svg width="113" height="67" viewBox="0 0 113 67" fill="none" xmlns="http://www.w3.org/2000/svg">
<rect width="113" height="67" fill="#1E1E1E"/>
<g filter="url(#filter0_d)">
<path d="M36.1738 30.7129H33.1855C32.9512 29.6582 32.4297 28.791 31.6211 28.1113C30.8242 27.4316 29.7871 27.0918 28.5098 27.0918C26.916 27.0918 25.6328 27.707 24.6602 28.9375C23.6875 30.1562 23.2012 31.7969 23.2012 33.8594C23.2012 35.957 23.6875 37.6094 24.6602 38.8164C25.6445 40.0234 26.9395 40.627 28.5449 40.627C29.7754 40.627 30.7891 40.3223 31.5859 39.7129C32.3945 39.0918 32.9336 38.2246 33.2031 37.1113H36.209C35.9746 38.9395 35.1484 40.4336 33.7305 41.5938C32.3242 42.7422 30.5898 43.3164 28.5273 43.3164C25.9727 43.3164 23.9277 42.4727 22.3926 40.7852C20.8574 39.0859 20.0898 36.7773 20.0898 33.8594C20.0898 30.9883 20.8574 28.6973 22.3926 26.9863C23.9277 25.2637 25.9609 24.4023 28.4922 24.4023C30.6719 24.4023 32.4414 25.0176 33.8008 26.248C35.1719 27.4785 35.9629 28.9668 36.1738 30.7129ZM47.6777 43.3164C45.123 43.3164 43.0722 42.4668 41.5253 40.7676C39.9784 39.0566 39.205 36.7539 39.205 33.8594C39.205 30.9648 39.9784 28.668 41.5253 26.9688C43.0722 25.2578 45.123 24.4023 47.6777 24.4023C50.2206 24.4023 52.2655 25.2578 53.8124 26.9688C55.3593 28.668 56.1327 30.9648 56.1327 33.8594C56.1327 36.7422 55.3593 39.0391 53.8124 40.75C52.2655 42.4609 50.2206 43.3164 47.6777 43.3164ZM43.7577 38.834C44.7304 40.0293 46.037 40.627 47.6777 40.627C49.3183 40.627 50.6191 40.0352 51.58 38.8516C52.5409 37.6562 53.0214 35.9922 53.0214 33.8594C53.0214 31.7266 52.5409 30.0684 51.58 28.8848C50.6191 27.6895 49.3183 27.0918 47.6777 27.0918C46.037 27.0918 44.7304 27.6895 43.7577 28.8848C42.7968 30.0801 42.3163 31.7383 42.3163 33.8594C42.3163 35.9805 42.7968 37.6387 43.7577 38.834ZM61.2909 43V27.2324H58.742V24.7188H61.2909V22.6797C61.2909 20.9219 61.701 19.6211 62.5213 18.7773C63.3534 17.9219 64.6131 17.4941 66.3006 17.4941C66.9569 17.4941 67.578 17.541 68.1639 17.6348V20.1133C67.6717 20.043 67.2088 20.0078 66.7752 20.0078C65.1463 20.0078 64.3319 20.9043 64.3319 22.6973V24.7188H68.076V27.2324H64.3495V43H61.2909ZM72.4783 43V24.7188H75.5369V43H72.4783ZM74.0076 21.6426C73.492 21.6426 73.0466 21.4551 72.6716 21.0801C72.2966 20.7051 72.1091 20.2598 72.1091 19.7441C72.1091 19.2168 72.2966 18.7715 72.6716 18.4082C73.0466 18.0332 73.492 17.8457 74.0076 17.8457C74.5349 17.8457 74.9861 18.0332 75.3611 18.4082C75.7361 18.7715 75.9236 19.2168 75.9236 19.7441C75.9236 20.2598 75.7361 20.7051 75.3611 21.0801C74.9861 21.4551 74.5349 21.6426 74.0076 21.6426ZM87.2165 36.0391H87.1462L82.7341 43H79.3415L85.5641 33.8594L79.447 24.7188H82.8571L87.2516 31.5742H87.322L91.6637 24.7188H95.0739L88.904 33.7363L94.986 43H91.5934L87.2165 36.0391Z" fill="white"/>
</g>
<defs>
<filter id="filter0_d" x="13.0898" y="10.4941" width="88.9841" height="39.8223" filterUnits="userSpaceOnUse" color-interpolation-filters="sRGB">
<feFlood flood-opacity="0" result="BackgroundImageFix"/>
<feColorMatrix in="SourceAlpha" type="matrix" values="0 0 0 0 0 0 0 0 0 0 0 0 0 0 0 0 0 0 127 0"/>
<feOffset/>
<feGaussianBlur stdDeviation="3.5"/>
<feColorMatrix type="matrix" values="0 0 0 0 1 0 0 0 0 1 0 0 0 0 1 0 0 0 1 0"/>
<feBlend mode="normal" in2="BackgroundImageFix" result="effect1_dropShadow"/>
<feBlend mode="normal" in="SourceGraphic" in2="effect1_dropShadow" result="shape"/>
</filter>
</defs>
</svg>
