<svg width="281" height="69" viewBox="0 0 281 69" fill="none" xmlns="http://www.w3.org/2000/svg">
<path d="M83.4055 26H79.802V7.33203H79.679L72.0325 25.8066H69.1145L61.4505 7.33203H61.3274V26H57.7415V0.634766H62.2942L70.5032 20.6562H70.6438L78.8352 0.634766H83.4055V26ZM92.7824 26H89.0383V7.50781H92.7824V20.4629H92.923L101.466 7.50781H105.21V26H101.466V13.0098H101.325L92.7824 26ZM120.019 7.20898C122.374 7.20898 124.261 8.07031 125.679 9.79297C127.097 11.5156 127.806 13.8359 127.806 16.7539C127.806 19.6719 127.103 21.998 125.696 23.7324C124.29 25.4551 122.421 26.3164 120.089 26.3164C118.776 26.3164 117.61 26.0176 116.591 25.4199C115.583 24.8223 114.81 24.002 114.271 22.959H114.183V32.1172H110.386V7.50781H114.06V10.6895H114.13C114.681 9.61133 115.472 8.76172 116.503 8.14062C117.534 7.51953 118.706 7.20898 120.019 7.20898ZM119.017 23.0996C120.517 23.0996 121.706 22.5312 122.585 21.3945C123.464 20.2461 123.903 18.6992 123.903 16.7539C123.903 14.8203 123.464 13.2793 122.585 12.1309C121.706 10.9824 120.517 10.4082 119.017 10.4082C117.564 10.4082 116.392 10.9883 115.501 12.1484C114.61 13.3086 114.165 14.8438 114.165 16.7539C114.165 18.6758 114.605 20.2168 115.484 21.377C116.374 22.5254 117.552 23.0996 119.017 23.0996ZM138.642 23.3105C139.978 23.3105 141.097 22.9062 141.999 22.0977C142.913 21.2773 143.37 20.2695 143.37 19.0742V17.6152L138.817 17.8965C137.681 17.9785 136.802 18.2598 136.181 18.7402C135.571 19.209 135.267 19.8418 135.267 20.6387C135.267 21.4473 135.571 22.0977 136.181 22.5898C136.802 23.0703 137.622 23.3105 138.642 23.3105ZM137.587 26.3164C135.771 26.3164 134.288 25.8008 133.14 24.7695C132.003 23.7383 131.435 22.3965 131.435 20.7441C131.435 19.127 132.032 17.8438 133.228 16.8945C134.423 15.9336 136.116 15.3945 138.308 15.2773L143.37 14.9785V13.5547C143.37 12.5234 143.042 11.7207 142.386 11.1465C141.73 10.5605 140.821 10.2676 139.661 10.2676C138.583 10.2676 137.704 10.5078 137.024 10.9883C136.356 11.4688 135.935 12.1309 135.759 12.9746H132.173C132.278 11.2637 133.017 9.86914 134.388 8.79102C135.759 7.71289 137.564 7.17383 139.802 7.17383C142.04 7.17383 143.821 7.72461 145.146 8.82617C146.481 9.92773 147.149 11.4043 147.149 13.2559V26H143.511V22.959H143.423C142.896 23.9785 142.093 24.793 141.015 25.4023C139.948 26.0117 138.806 26.3164 137.587 26.3164ZM166.001 7.50781V10.5137H160.2V26H156.421V10.5137H150.62V7.50781H166.001ZM183.85 23.7852C182.257 25.4961 180.13 26.3516 177.47 26.3516C174.809 26.3516 172.682 25.4961 171.089 23.7852C169.495 22.0625 168.698 19.7188 168.698 16.7539C168.698 13.8008 169.495 11.4688 171.089 9.75781C172.682 8.03516 174.809 7.17383 177.47 7.17383C180.13 7.17383 182.257 8.03516 183.85 9.75781C185.444 11.4688 186.241 13.8008 186.241 16.7539C186.241 19.7188 185.444 22.0625 183.85 23.7852ZM177.47 23.2227C178.981 23.2227 180.177 22.6543 181.056 21.5176C181.934 20.3809 182.374 18.793 182.374 16.7539C182.374 14.7266 181.929 13.1445 181.038 12.0078C180.159 10.8711 178.97 10.3027 177.47 10.3027C175.97 10.3027 174.774 10.8711 173.884 12.0078C173.005 13.1445 172.565 14.7266 172.565 16.7539C172.565 18.793 173.005 20.3809 173.884 21.5176C174.774 22.6543 175.97 23.2227 177.47 23.2227ZM200.241 7.20898C202.596 7.20898 204.483 8.07031 205.901 9.79297C207.319 11.5156 208.028 13.8359 208.028 16.7539C208.028 19.6719 207.325 21.998 205.919 23.7324C204.512 25.4551 202.643 26.3164 200.311 26.3164C198.999 26.3164 197.833 26.0176 196.813 25.4199C195.805 24.8223 195.032 24.002 194.493 22.959H194.405V32.1172H190.608V7.50781H194.282V10.6895H194.352C194.903 9.61133 195.694 8.76172 196.725 8.14062C197.757 7.51953 198.929 7.20898 200.241 7.20898ZM199.239 23.0996C200.739 23.0996 201.929 22.5312 202.807 21.3945C203.686 20.2461 204.126 18.6992 204.126 16.7539C204.126 14.8203 203.686 13.2793 202.807 12.1309C201.929 10.9824 200.739 10.4082 199.239 10.4082C197.786 10.4082 196.614 10.9883 195.723 12.1484C194.833 13.3086 194.387 14.8438 194.387 16.7539C194.387 18.6758 194.827 20.2168 195.706 21.377C196.596 22.5254 197.774 23.0996 199.239 23.0996ZM224.63 10.5137H216.157V26H212.378V7.50781H224.63V10.5137ZM0.757416 51.998C0.757416 45.8926 2.38046 40.7715 5.62656 36.6348H7.64804C6.32382 38.2402 5.23984 40.4902 4.39609 43.3848C3.55234 46.2676 3.13046 49.1387 3.13046 51.998C3.13046 54.8574 3.55234 57.7285 4.39609 60.6113C5.23984 63.4824 6.32382 65.7266 7.64804 67.3438H5.62656C2.38046 63.207 0.757416 58.0918 0.757416 51.998ZM280.243 51.998C280.243 58.0801 278.62 63.1953 275.373 67.3438H273.352C274.524 65.8906 275.567 63.793 276.481 61.0508C277.407 58.3086 277.87 55.291 277.87 51.998C277.87 50.2754 277.729 48.5879 277.448 46.9355C277.166 45.2715 276.797 43.7949 276.34 42.5059C275.883 41.2051 275.403 40.0684 274.899 39.0957C274.395 38.1113 273.879 37.291 273.352 36.6348H275.373C278.62 40.7832 280.243 45.9043 280.243 51.998Z" fill="#D3D3D3"/>
<path d="M26.7105 49.1152C28.2222 50.498 28.978 52.3027 28.978 54.5293C28.978 56.7559 28.228 58.5605 26.728 59.9434C25.228 61.3145 23.2652 62 20.8394 62H12.0327V36.6348H26.605V38.8145H14.4234V47.0234H20.8218C23.2359 47.0234 25.1987 47.7207 26.7105 49.1152ZM14.4234 59.8203H20.2769C22.2339 59.8203 23.7632 59.3574 24.8648 58.4316C25.9663 57.4941 26.5171 56.1934 26.5171 54.5293C26.5171 52.8652 25.9663 51.5645 24.8648 50.627C23.7632 49.6777 22.2339 49.2031 20.2769 49.2031H14.4234V59.8203ZM34.6635 68.6094C34.2416 68.6094 33.8549 68.5742 33.5034 68.5039V66.5176C33.7846 66.5879 34.1537 66.623 34.6108 66.623C35.4428 66.623 36.1108 66.3887 36.6147 65.9199C37.1303 65.4512 37.5932 64.6426 38.0034 63.4941L38.4955 62.123L31.6401 43.7188H34.1362L39.6909 59.6797H39.7436L45.3159 43.7188H47.7592L40.5698 63.1074C39.7729 65.252 38.9643 66.7051 38.144 67.4668C37.3237 68.2285 36.1635 68.6094 34.6635 68.6094ZM60.1068 43.4199C62.4271 43.4199 64.3021 44.2871 65.7318 46.0215C67.1732 47.7441 67.8939 50.0234 67.8939 52.8594C67.8939 55.6953 67.1791 57.9805 65.7494 59.7148C64.3314 61.4375 62.4681 62.2988 60.1595 62.2988C58.7181 62.2988 57.4408 61.9297 56.3275 61.1914C55.2259 60.4414 54.4291 59.457 53.9369 58.2383H53.8666V68.0469H51.5462V43.7188H53.7435V47.5859H53.8138C54.3294 46.3438 55.1439 45.3418 56.2572 44.5801C57.3705 43.8066 58.6537 43.4199 60.1068 43.4199ZM59.7025 60.2422C61.472 60.2422 62.8841 59.5742 63.9388 58.2383C64.9935 56.8906 65.5209 55.0977 65.5209 52.8594C65.5209 50.6328 64.9877 48.8457 63.9212 47.498C62.8666 46.1504 61.4603 45.4766 59.7025 45.4766C57.9681 45.4766 56.5619 46.1621 55.4837 47.5332C54.4056 48.8926 53.8666 50.668 53.8666 52.8594C53.8666 55.0625 54.4056 56.8438 55.4837 58.2031C56.5619 59.5625 57.9681 60.2422 59.7025 60.2422ZM84.0384 45.6523H74.7044V62H72.4016V43.7188H84.0384V45.6523ZM94.6809 45.459C93.0519 45.459 91.7102 46.0273 90.6555 47.1641C89.6125 48.2891 89.0441 49.7598 88.9504 51.5762H100.236C100.212 49.7598 99.6906 48.2891 98.6711 47.1641C97.6516 46.0273 96.3215 45.459 94.6809 45.459ZM100.095 56.8145H102.398C102.116 58.4199 101.284 59.7383 99.9016 60.7695C98.5305 61.7891 96.8488 62.2988 94.8566 62.2988C92.2902 62.2988 90.2629 61.4609 88.7746 59.7852C87.2863 58.0977 86.5422 55.8066 86.5422 52.9121C86.5422 50.0645 87.2863 47.7734 88.7746 46.0391C90.2629 44.293 92.2434 43.4199 94.716 43.4199C97.1301 43.4199 99.0519 44.2402 100.482 45.8809C101.911 47.5215 102.626 49.707 102.626 52.4375V53.4219H88.9328V53.5625C88.9328 55.625 89.4719 57.2598 90.55 58.4668C91.6281 59.6621 93.0812 60.2598 94.9094 60.2598C96.257 60.2598 97.3937 59.9434 98.3195 59.3105C99.2453 58.6777 99.8371 57.8457 100.095 56.8145ZM115.73 43.4199C118.05 43.4199 119.925 44.2871 121.355 46.0215C122.796 47.7441 123.517 50.0234 123.517 52.8594C123.517 55.6953 122.802 57.9805 121.372 59.7148C119.954 61.4375 118.091 62.2988 115.782 62.2988C114.341 62.2988 113.064 61.9297 111.95 61.1914C110.849 60.4414 110.052 59.457 109.56 58.2383H109.489V68.0469H107.169V43.7188H109.366V47.5859H109.437C109.952 46.3438 110.767 45.3418 111.88 44.5801C112.993 43.8066 114.276 43.4199 115.73 43.4199ZM115.325 60.2422C117.095 60.2422 118.507 59.5742 119.562 58.2383C120.616 56.8906 121.144 55.0977 121.144 52.8594C121.144 50.6328 120.61 48.8457 119.544 47.498C118.489 46.1504 117.083 45.4766 115.325 45.4766C113.591 45.4766 112.185 46.1621 111.107 47.5332C110.028 48.8926 109.489 50.668 109.489 52.8594C109.489 55.0625 110.028 56.8438 111.107 58.2031C112.185 59.5625 113.591 60.2422 115.325 60.2422ZM178.866 60.2598V45.4941C176.639 45.5527 174.87 46.2383 173.557 47.5508C172.245 48.8633 171.589 50.6387 171.589 52.877C171.589 55.1152 172.245 56.8906 173.557 58.2031C174.87 59.5156 176.639 60.2012 178.866 60.2598ZM186.389 58.2031C187.702 56.8906 188.358 55.1152 188.358 52.877C188.358 50.6387 187.702 48.8633 186.389 47.5508C185.089 46.2383 183.331 45.5527 181.116 45.4941V60.2598C183.331 60.2012 185.089 59.5156 186.389 58.2031ZM178.866 62.2637C175.948 62.2051 173.616 61.332 171.87 59.6445C170.124 57.957 169.251 55.7012 169.251 52.877C169.251 50.0527 170.124 47.7969 171.87 46.1094C173.616 44.4219 175.948 43.5488 178.866 43.4902V37.584H181.116V43.4902C184.022 43.5488 186.343 44.4219 188.077 46.1094C189.823 47.7969 190.696 50.0527 190.696 52.877C190.696 55.7012 189.823 57.957 188.077 59.6445C186.331 61.332 184.011 62.2051 181.116 62.2637V68.0469H178.866V62.2637ZM203.782 43.4199C206.102 43.4199 207.977 44.2871 209.407 46.0215C210.848 47.7441 211.569 50.0234 211.569 52.8594C211.569 55.6953 210.854 57.9805 209.425 59.7148C208.007 61.4375 206.143 62.2988 203.835 62.2988C202.393 62.2988 201.116 61.9297 200.003 61.1914C198.901 60.4414 198.104 59.457 197.612 58.2383H197.542V68.0469H195.221V43.7188H197.419V47.5859H197.489C198.005 46.3438 198.819 45.3418 199.932 44.5801C201.046 43.8066 202.329 43.4199 203.782 43.4199ZM203.378 60.2422C205.147 60.2422 206.559 59.5742 207.614 58.2383C208.669 56.8906 209.196 55.0977 209.196 52.8594C209.196 50.6328 208.663 48.8457 207.596 47.498C206.542 46.1504 205.135 45.4766 203.378 45.4766C201.643 45.4766 200.237 46.1621 199.159 47.5332C198.081 48.8926 197.542 50.668 197.542 52.8594C197.542 55.0625 198.081 56.8438 199.159 58.2031C200.237 59.5625 201.643 60.2422 203.378 60.2422ZM221.913 60.2949C223.518 60.2949 224.872 59.7969 225.973 58.8008C227.075 57.8047 227.626 56.5801 227.626 55.127V53.1055L222.212 53.4746C220.77 53.5684 219.663 53.9199 218.889 54.5293C218.116 55.127 217.729 55.9297 217.729 56.9375C217.729 57.9336 218.116 58.7422 218.889 59.3633C219.663 59.9844 220.671 60.2949 221.913 60.2949ZM221.438 62.2988C219.633 62.2988 218.169 61.8066 217.044 60.8223C215.93 59.8262 215.374 58.5312 215.374 56.9375C215.374 55.3672 215.936 54.125 217.061 53.2109C218.198 52.2969 219.821 51.7695 221.93 51.6289L227.626 51.2773V49.6953C227.626 48.3711 227.227 47.3398 226.43 46.6016C225.633 45.8516 224.526 45.4766 223.108 45.4766C221.772 45.4766 220.682 45.7871 219.839 46.4082C219.006 47.0293 218.491 47.8965 218.292 49.0098H216.042C216.171 47.3457 216.874 45.998 218.151 44.9668C219.44 43.9355 221.11 43.4199 223.161 43.4199C225.247 43.4199 226.899 43.9648 228.118 45.0547C229.337 46.1445 229.946 47.6211 229.946 49.4844V62H227.731V58.5195H227.678C227.174 59.6562 226.348 60.5703 225.2 61.2617C224.051 61.9531 222.798 62.2988 221.438 62.2988ZM237.565 62H235.262V43.7188H237.565V58.4141H237.688L247.866 43.7188H250.169V62H247.866V47.3047H247.76L237.565 62ZM237.864 35.8438H239.639C239.639 36.8984 239.956 37.7598 240.588 38.4277C241.233 39.084 242.088 39.4121 243.155 39.4121C244.21 39.4121 245.053 39.084 245.686 38.4277C246.331 37.7598 246.653 36.8984 246.653 35.8438H248.428C248.428 37.3438 247.942 38.5566 246.969 39.4824C246.008 40.3965 244.737 40.8535 243.155 40.8535C241.561 40.8535 240.278 40.3965 239.305 39.4824C238.344 38.5566 237.864 37.3438 237.864 35.8438ZM270.391 49.1504H268.088C267.772 48.0723 267.163 47.1934 266.26 46.5137C265.37 45.8223 264.256 45.4766 262.92 45.4766C261.139 45.4766 259.715 46.1504 258.649 47.498C257.582 48.834 257.049 50.6211 257.049 52.8594C257.049 55.1211 257.582 56.9199 258.649 58.2559C259.727 59.5801 261.163 60.2422 262.956 60.2422C264.256 60.2422 265.352 59.9316 266.243 59.3105C267.145 58.6777 267.754 57.8105 268.071 56.709H270.391C270.063 58.373 269.225 59.7207 267.877 60.752C266.53 61.7832 264.883 62.2988 262.938 62.2988C260.43 62.2988 258.426 61.4492 256.926 59.75C255.426 58.0508 254.676 55.7539 254.676 52.8594C254.676 50 255.426 47.7148 256.926 46.0039C258.426 44.2812 260.424 43.4199 262.92 43.4199C264.913 43.4199 266.571 43.9648 267.895 45.0547C269.231 46.1445 270.063 47.5098 270.391 49.1504Z" fill="#ADADAD" fill-opacity="0.7"/>
<path d="M155.138 62L152.343 59.0469C151.265 60.1016 149.987 60.9277 148.511 61.5254C147.046 62.1113 145.54 62.4043 143.993 62.4043C141.556 62.4043 139.563 61.7539 138.017 60.4531C136.481 59.1406 135.714 57.4531 135.714 55.3906C135.714 52.5547 137.349 50.2637 140.618 48.5176C140.724 48.4707 140.882 48.3945 141.093 48.2891C141.304 48.1719 141.491 48.0723 141.655 47.9902C141.819 47.8965 141.919 47.8438 141.954 47.832C140.677 46.5195 139.78 45.4121 139.265 44.5098C138.761 43.5957 138.509 42.6699 138.509 41.7324C138.509 40.1738 139.106 38.873 140.302 37.8301C141.509 36.7754 142.997 36.248 144.767 36.248C146.548 36.248 148.024 36.7637 149.196 37.7949C150.368 38.8262 150.954 40.1387 150.954 41.7324C150.954 42.998 150.509 44.1523 149.618 45.1953C148.727 46.2266 147.263 47.2695 145.224 48.3242L152.202 55.7949C153.292 53.9434 153.837 51.5938 153.837 48.7461V47.7266H156.069V48.7637C156.069 52.1738 155.302 55.0508 153.767 57.3945L158.161 62H155.138ZM142.007 49.9766C140.636 50.7617 139.64 51.582 139.019 52.4375C138.397 53.2812 138.087 54.2188 138.087 55.25C138.087 56.75 138.649 57.9805 139.774 58.9414C140.911 59.8906 142.382 60.3652 144.186 60.3652C145.429 60.3652 146.665 60.1074 147.895 59.5918C149.126 59.0645 150.128 58.373 150.901 57.5176L143.272 49.291C142.804 49.502 142.382 49.7305 142.007 49.9766ZM143.905 46.9531C145.604 46.1094 146.829 45.2832 147.579 44.4746C148.329 43.666 148.704 42.7812 148.704 41.8203C148.704 40.7656 148.329 39.8926 147.579 39.2012C146.841 38.5098 145.903 38.1641 144.767 38.1641C143.642 38.1641 142.698 38.5215 141.936 39.2363C141.175 39.9395 140.794 40.8125 140.794 41.8555C140.794 42.5938 141.017 43.332 141.462 44.0703C141.919 44.8086 142.733 45.7695 143.905 46.9531Z" fill="white"/>
</svg>
