<svg width="144" height="44" viewBox="0 0 144 44" fill="none" xmlns="http://www.w3.org/2000/svg">
<rect y="1" width="144" height="36" fill="#1E1E1E"/>
<path d="M3.46094 5.63477H12.5137C14.8926 5.63477 16.8379 6.39648 18.3496 7.91992C19.873 9.43164 20.6348 11.3828 20.6348 13.7734C20.6348 16.1758 19.873 18.1387 18.3496 19.6621C16.8262 21.1855 14.8691 21.9473 12.4785 21.9473H6.625V31H3.46094V5.63477ZM6.625 8.44727V19.1348H11.6875C13.4922 19.1348 14.8926 18.666 15.8887 17.7285C16.8848 16.7793 17.3828 15.4609 17.3828 13.7734C17.3828 12.0859 16.8848 10.7793 15.8887 9.85352C14.9043 8.91602 13.5039 8.44727 11.6875 8.44727H6.625ZM25.037 31V12.7188H28.0956V31H25.037ZM26.5663 9.64258C26.0507 9.64258 25.6054 9.45508 25.2304 9.08008C24.8554 8.70508 24.6679 8.25977 24.6679 7.74414C24.6679 7.2168 24.8554 6.77148 25.2304 6.4082C25.6054 6.0332 26.0507 5.8457 26.5663 5.8457C27.0937 5.8457 27.5448 6.0332 27.9198 6.4082C28.2948 6.77148 28.4823 7.2168 28.4823 7.74414C28.4823 8.25977 28.2948 8.70508 27.9198 9.08008C27.5448 9.45508 27.0937 9.64258 26.5663 9.64258ZM32.9198 31V28.8203L43.0448 15.2852V15.2324H32.9373V12.7188H46.5077V14.9512L36.453 28.4336V28.4863H46.5604V31H32.9198ZM50.8396 31V28.8203L60.9646 15.2852V15.2324H50.8572V12.7188H64.4275V14.9512L54.3728 28.4336V28.4863H64.4802V31H50.8396ZM75.1755 28.7148C76.6169 28.7148 77.8239 28.2695 78.7966 27.3789C79.7809 26.4766 80.2731 25.3691 80.2731 24.0566V22.5625L75.3864 22.8613C74.1559 22.9434 73.2009 23.2422 72.5212 23.7578C71.8532 24.2734 71.5192 24.9648 71.5192 25.832C71.5192 26.6992 71.8532 27.3965 72.5212 27.9238C73.1891 28.4512 74.0739 28.7148 75.1755 28.7148ZM74.4899 31.3164C72.6735 31.3164 71.2028 30.8125 70.0778 29.8047C68.9645 28.7969 68.4079 27.4727 68.4079 25.832C68.4079 24.2617 68.9821 23.0078 70.1305 22.0703C71.2907 21.1328 72.9255 20.6055 75.0348 20.4883L80.2731 20.1895V18.6602C80.2731 17.5469 79.9216 16.6738 79.2184 16.041C78.5153 15.4082 77.5309 15.0918 76.2653 15.0918C75.1052 15.0918 74.1618 15.3496 73.4352 15.8652C72.7087 16.3691 72.2458 17.0781 72.0466 17.9922H69.0934C69.1989 16.3633 69.902 15.0273 71.2028 13.9844C72.5153 12.9297 74.2262 12.4023 76.3356 12.4023C78.4802 12.4023 80.1794 12.9414 81.4333 14.0195C82.6989 15.0977 83.3317 16.5449 83.3317 18.3613V31H80.4313V27.8535H80.361C79.8102 28.8965 79.0016 29.7344 77.9352 30.3672C76.8688 31 75.7204 31.3164 74.4899 31.3164ZM109.021 31H105.857V19.4512H91.9352V31H88.7711V5.63477H91.9352V16.6035H105.857V5.63477H109.021V31ZM129.56 12.7188V31H126.66V28.0293H126.589C125.453 30.2207 123.519 31.3164 120.789 31.3164C118.808 31.3164 117.255 30.7188 116.13 29.5234C115.017 28.3164 114.46 26.6699 114.46 24.584V12.7188H117.519V24.0391C117.519 27.0859 118.925 28.6094 121.738 28.6094C123.214 28.6094 124.375 28.1465 125.218 27.2207C126.074 26.2832 126.501 25.0293 126.501 23.459V12.7188H129.56ZM135.597 8.30664H138.656V12.7188H142.206V15.2324H138.656V26.0957C138.656 26.9277 138.837 27.543 139.201 27.9414C139.564 28.3281 140.138 28.5215 140.923 28.5215C141.415 28.5215 141.837 28.4922 142.189 28.4336V31C141.79 31.0938 141.146 31.1406 140.255 31.1406C138.58 31.1406 137.384 30.7656 136.669 30.0156C135.955 29.2656 135.597 28.0117 135.597 26.2539V15.2324H132.872V12.7188H135.597V8.30664Z" fill="white"/>
<path d="M1 41.7227H143.472V43.832H1V41.7227Z" fill="white"/>
<line y1="42.5" x2="143" y2="42.5" stroke="#C1C1C1" stroke-width="3"/>
<line x1="33" y1="7.5" x2="84" y2="7.5" stroke="#5B5B5B" stroke-width="3"/>
<circle cx="26.5" cy="7.5" r="3.5" fill="#808080"/>
</svg>
