<svg width="194" height="36" viewBox="0 0 194 36" fill="none" xmlns="http://www.w3.org/2000/svg">
<path d="M55.875 18.502H53.5898C53.332 17.3184 52.7402 16.3516 51.8145 15.6016C50.9004 14.8516 49.752 14.4766 48.3691 14.4766C46.5762 14.4766 45.1406 15.1445 44.0625 16.4805C42.9961 17.8164 42.4629 19.6094 42.4629 21.8594C42.4629 24.1328 43.002 25.9316 44.0801 27.2559C45.1582 28.5801 46.5938 29.2422 48.3867 29.2422C49.7461 29.2422 50.8828 28.8906 51.7969 28.1875C52.7227 27.4844 53.3203 26.5352 53.5898 25.3398H55.8926C55.6348 27.0977 54.8145 28.5332 53.4316 29.6465C52.0605 30.748 50.373 31.2988 48.3691 31.2988C45.8613 31.2988 43.8516 30.4551 42.3398 28.7676C40.8398 27.0684 40.0898 24.7656 40.0898 21.8594C40.0898 18.9883 40.8398 16.6973 42.3398 14.9863C43.8516 13.2754 45.8555 12.4199 48.3516 12.4199C50.4258 12.4199 52.1367 13.0059 53.4844 14.1777C54.8438 15.3496 55.6406 16.791 55.875 18.502ZM60.2421 5.63477H68.4687C72.2655 5.63477 75.2187 6.74805 77.328 8.97461C79.4374 11.1895 80.4921 14.3008 80.4921 18.3086C80.4921 22.3281 79.4374 25.4512 77.328 27.6777C75.2304 29.8926 72.2773 31 68.4687 31H60.2421V5.63477ZM62.6503 7.81445V28.8203H68.328C71.4452 28.8203 73.8417 27.9121 75.5175 26.0957C77.205 24.2793 78.0487 21.6895 78.0487 18.3262C78.0487 14.9512 77.205 12.3555 75.5175 10.5391C73.8417 8.72266 71.4452 7.81445 68.328 7.81445H62.6503ZM98.3944 28.75C96.8709 30.4492 94.8553 31.2988 92.3475 31.2988C89.8397 31.2988 87.8241 30.4492 86.3006 28.75C84.7772 27.0391 84.0155 24.7422 84.0155 21.8594C84.0155 18.9766 84.7772 16.6855 86.3006 14.9863C87.8358 13.2754 89.8514 12.4199 92.3475 12.4199C94.8553 12.4199 96.8709 13.2754 98.3944 14.9863C99.9178 16.6855 100.68 18.9766 100.68 21.8594C100.68 24.7422 99.9178 27.0391 98.3944 28.75ZM88.0057 27.2734C89.0838 28.5859 90.5311 29.2422 92.3475 29.2422C94.1639 29.2422 95.6112 28.5859 96.6893 27.2734C97.7791 25.9609 98.3241 24.1562 98.3241 21.8594C98.3241 19.5625 97.7791 17.7578 96.6893 16.4453C95.6112 15.1328 94.1639 14.4766 92.3475 14.4766C90.5311 14.4766 89.0838 15.1328 88.0057 16.4453C86.9276 17.7578 86.3885 19.5625 86.3885 21.8594C86.3885 24.1562 86.9276 25.9609 88.0057 27.2734ZM104.853 31V12.7188H107.051V16.0938H107.103C107.584 14.957 108.345 14.0605 109.388 13.4043C110.443 12.748 111.691 12.4199 113.133 12.4199C115.136 12.4199 116.713 13.0234 117.861 14.2305C119.021 15.4375 119.601 17.0781 119.601 19.1523V31H117.281V19.5215C117.281 17.9277 116.859 16.6914 116.015 15.8125C115.183 14.9336 114 14.4941 112.465 14.4941C110.883 14.4941 109.605 15.0156 108.633 16.0586C107.66 17.1016 107.174 18.4727 107.174 20.1719V31H104.853ZM130.49 29.2949C132.095 29.2949 133.449 28.7969 134.55 27.8008C135.652 26.8047 136.203 25.5801 136.203 24.127V22.1055L130.789 22.4746C129.347 22.5684 128.24 22.9199 127.466 23.5293C126.693 24.127 126.306 24.9297 126.306 25.9375C126.306 26.9336 126.693 27.7422 127.466 28.3633C128.24 28.9844 129.248 29.2949 130.49 29.2949ZM130.015 31.2988C128.211 31.2988 126.746 30.8066 125.621 29.8223C124.507 28.8262 123.951 27.5312 123.951 25.9375C123.951 24.3672 124.513 23.125 125.638 22.2109C126.775 21.2969 128.398 20.7695 130.507 20.6289L136.203 20.2773V18.6953C136.203 17.3711 135.804 16.3398 135.007 15.6016C134.211 14.8516 133.103 14.4766 131.685 14.4766C130.349 14.4766 129.259 14.7871 128.416 15.4082C127.584 16.0293 127.068 16.8965 126.869 18.0098H124.619C124.748 16.3457 125.451 14.998 126.728 13.9668C128.017 12.9355 129.687 12.4199 131.738 12.4199C133.824 12.4199 135.476 12.9648 136.695 14.0547C137.914 15.1445 138.523 16.6211 138.523 18.4844V31H136.308V27.5195H136.256C135.752 28.6562 134.925 29.5703 133.777 30.2617C132.629 30.9531 131.375 31.2988 130.015 31.2988ZM143.664 31V5.63477H145.984V31H143.664ZM158.138 31.2988C155.818 31.2988 153.931 30.4316 152.478 28.6973C151.037 26.9629 150.316 24.6836 150.316 21.8594C150.316 19.0234 151.031 16.7441 152.46 15.0215C153.902 13.2871 155.777 12.4199 158.085 12.4199C159.527 12.4199 160.804 12.7949 161.918 13.5449C163.043 14.2832 163.851 15.2617 164.343 16.4805H164.396V5.63477H166.734V31H164.519V27.1328H164.466C163.939 28.3867 163.113 29.3945 161.988 30.1562C160.863 30.918 159.58 31.2988 158.138 31.2988ZM158.543 14.4766C156.785 14.4766 155.373 15.1504 154.306 16.498C153.24 17.8457 152.707 19.6328 152.707 21.8594C152.707 24.0859 153.24 25.873 154.306 27.2207C155.373 28.5684 156.785 29.2422 158.543 29.2422C160.289 29.2422 161.701 28.5625 162.779 27.2031C163.869 25.8438 164.414 24.0625 164.414 21.8594C164.414 19.6562 163.869 17.875 162.779 16.5156C161.701 15.1562 160.289 14.4766 158.543 14.4766ZM174.089 14.0898H172.138L173.826 5.63477H176.304L174.089 14.0898ZM178.439 17.6055C178.439 16.0938 179.048 14.8516 180.267 13.8789C181.497 12.9063 183.079 12.4199 185.013 12.4199C186.876 12.4199 188.417 12.9238 189.636 13.9316C190.867 14.9277 191.54 16.2285 191.658 17.834H189.425C189.285 16.7441 188.816 15.8887 188.019 15.2676C187.234 14.6465 186.208 14.3359 184.943 14.3359C183.701 14.3359 182.687 14.6348 181.902 15.2324C181.128 15.8184 180.742 16.5684 180.742 17.4824C180.742 18.2324 181.023 18.8477 181.585 19.3281C182.148 19.7969 183.038 20.1836 184.257 20.4883L186.964 21.1387C188.792 21.5957 190.087 22.1934 190.849 22.9316C191.611 23.6699 191.992 24.6953 191.992 26.0078C191.992 27.5547 191.335 28.8262 190.023 29.8223C188.71 30.8066 187.023 31.2988 184.96 31.2988C183.003 31.2988 181.374 30.8008 180.074 29.8047C178.785 28.8086 178.064 27.502 177.911 25.8848H180.232C180.396 26.9746 180.906 27.8301 181.761 28.4512C182.628 29.0723 183.742 29.3828 185.101 29.3828C186.472 29.3828 187.574 29.0898 188.406 28.5039C189.238 27.918 189.654 27.1445 189.654 26.1836C189.654 25.3867 189.396 24.7598 188.88 24.3027C188.376 23.834 187.515 23.4531 186.296 23.1602L183.326 22.4219C181.673 22.0117 180.443 21.4141 179.634 20.6289C178.837 19.832 178.439 18.8242 178.439 17.6055Z" fill="#ADADAD" fill-opacity="0.7"/>
<path d="M5.28 34C4.96 34 4.688 33.904 4.464 33.712C4.272 33.488 4.176 33.216 4.176 32.896V1.552C4.176 1.2 4.272 0.927999 4.464 0.735999C4.688 0.511998 4.96 0.399998 5.28 0.399998H7.68C8.192 0.399998 8.608 0.655998 8.928 1.168L19.056 20.56L29.28 1.168C29.344 0.975998 29.472 0.799997 29.664 0.639997C29.888 0.479998 30.16 0.399998 30.48 0.399998H32.832C33.184 0.399998 33.456 0.511998 33.648 0.735999C33.872 0.927999 33.984 1.2 33.984 1.552V32.896C33.984 33.216 33.872 33.488 33.648 33.712C33.424 33.904 33.152 34 32.832 34H30.48C30.16 34 29.888 33.904 29.664 33.712C29.472 33.488 29.376 33.216 29.376 32.896V9.28L21.36 24.928C21.04 25.6 20.528 25.936 19.824 25.936H18.336C17.632 25.936 17.12 25.6 16.8 24.928L8.736 9.28V32.896C8.736 33.216 8.624 33.488 8.4 33.712C8.208 33.904 7.952 34 7.632 34H5.28Z" fill="#C1C1C1"/>
</svg>
