<svg width="214" height="53" viewBox="0 0 214 53" fill="none" xmlns="http://www.w3.org/2000/svg">
<rect width="214" height="52.1043" fill="#306C36"/>
<path d="M9.53821 14.9391H17.7648C21.5616 14.9391 24.5148 16.0524 26.6241 18.2789C28.7335 20.4938 29.7882 23.6051 29.7882 27.6129C29.7882 31.6324 28.7335 34.7555 26.6241 36.9821C24.5265 39.1969 21.5734 40.3043 17.7648 40.3043H9.53821V14.9391ZM11.9464 17.1188V38.1246H17.6241C20.7413 38.1246 23.1378 37.2164 24.8136 35.4C26.5011 33.5836 27.3448 30.9938 27.3448 27.6305C27.3448 24.2555 26.5011 21.6598 24.8136 19.8434C23.1378 18.027 20.7413 17.1188 17.6241 17.1188H11.9464ZM41.4502 23.7633C39.8213 23.7633 38.4795 24.3317 37.4248 25.4684C36.3819 26.5934 35.8135 28.0641 35.7198 29.8805H47.0049C46.9815 28.0641 46.46 26.5934 45.4405 25.4684C44.4209 24.3317 43.0909 23.7633 41.4502 23.7633ZM46.8643 35.1188H49.167C48.8858 36.7242 48.0538 38.0426 46.6709 39.0739C45.2998 40.0934 43.6182 40.6031 41.626 40.6031C39.0596 40.6031 37.0323 39.7653 35.544 38.0895C34.0557 36.402 33.3116 34.111 33.3116 31.2164C33.3116 28.3688 34.0557 26.0778 35.544 24.3434C37.0323 22.5973 39.0127 21.7242 41.4854 21.7242C43.8995 21.7242 45.8213 22.5446 47.251 24.1852C48.6807 25.8258 49.3956 28.0114 49.3956 30.7418V31.7262H35.7022V31.8668C35.7022 33.9293 36.2413 35.5641 37.3194 36.7711C38.3975 37.9664 39.8506 38.5641 41.6788 38.5641C43.0264 38.5641 44.1631 38.2477 45.0889 37.6149C46.0147 36.9821 46.6065 36.15 46.8643 35.1188ZM53.7451 40.3043V14.9391H56.0654V40.3043H53.7451ZM61.4696 40.3043V22.0231H63.7899V40.3043H61.4696ZM62.6298 18.3317C62.2079 18.3317 61.8446 18.1852 61.5399 17.8922C61.2352 17.5875 61.0829 17.2184 61.0829 16.7848C61.0829 16.3629 61.2352 16.0055 61.5399 15.7125C61.8446 15.4078 62.2079 15.2555 62.6298 15.2555C63.0634 15.2555 63.4325 15.4078 63.7372 15.7125C64.0419 16.0055 64.1942 16.3629 64.1942 16.7848C64.1942 17.2184 64.0419 17.5875 63.7372 17.8922C63.4325 18.1852 63.0634 18.3317 62.6298 18.3317ZM83.3797 22.0231L76.5945 40.3043H74.116L67.3133 22.0231H69.7742L75.3289 37.861H75.3816L80.9539 22.0231H83.3797ZM93.5827 23.7633C91.9538 23.7633 90.612 24.3317 89.5574 25.4684C88.5144 26.5934 87.946 28.0641 87.8523 29.8805H99.1374C99.114 28.0641 98.5925 26.5934 97.573 25.4684C96.5534 24.3317 95.2234 23.7633 93.5827 23.7633ZM98.9968 35.1188H101.3C101.018 36.7242 100.186 38.0426 98.8034 39.0739C97.4324 40.0934 95.7507 40.6031 93.7585 40.6031C91.1921 40.6031 89.1648 39.7653 87.6765 38.0895C86.1882 36.402 85.4441 34.111 85.4441 31.2164C85.4441 28.3688 86.1882 26.0778 87.6765 24.3434C89.1648 22.5973 91.1452 21.7242 93.6179 21.7242C96.032 21.7242 97.9538 22.5446 99.3835 24.1852C100.813 25.8258 101.528 28.0114 101.528 30.7418V31.7262H87.8347V31.8668C87.8347 33.9293 88.3738 35.5641 89.4519 36.7711C90.53 37.9664 91.9831 38.5641 93.8113 38.5641C95.1589 38.5641 96.2956 38.2477 97.2214 37.6149C98.1472 36.9821 98.739 36.15 98.9968 35.1188ZM105.719 40.3043V22.0231H107.917V25.275H107.969C108.309 24.1617 108.883 23.2946 109.692 22.6735C110.501 22.0406 111.467 21.7242 112.592 21.7242C113.038 21.7242 113.518 21.7887 114.034 21.9176V24.2028C113.659 24.027 113.079 23.9391 112.294 23.9391C111.005 23.9391 109.973 24.3961 109.2 25.3102C108.426 26.2242 108.04 27.4254 108.04 28.9137V40.3043H105.719ZM118.928 46.9137C118.506 46.9137 118.12 46.8785 117.768 46.8082V44.8219C118.049 44.8922 118.419 44.9274 118.876 44.9274C119.708 44.9274 120.376 44.693 120.879 44.2242C121.395 43.7555 121.858 42.9469 122.268 41.7985L122.76 40.4274L115.905 22.0231H118.401L123.956 37.984H124.008L129.581 22.0231H132.024L124.835 41.4117C124.038 43.5563 123.229 45.0094 122.409 45.7711C121.588 46.5328 120.428 46.9137 118.928 46.9137ZM146.446 40.7086C142.989 40.7086 140.241 39.525 138.202 37.1578C136.163 34.7789 135.143 31.5797 135.143 27.5602C135.143 23.5875 136.163 20.4235 138.202 18.068C140.252 15.7125 143 14.5348 146.446 14.5348C148.215 14.5348 149.838 14.8922 151.315 15.6071C152.803 16.3219 154.022 17.3239 154.971 18.6129C155.92 19.902 156.506 21.361 156.729 22.9899H154.321C153.969 21.1617 153.061 19.6676 151.596 18.5074C150.131 17.3473 148.415 16.7672 146.446 16.7672C143.75 16.7672 141.6 17.7457 139.995 19.7028C138.401 21.6481 137.604 24.2672 137.604 27.5602C137.604 30.9 138.401 33.5543 139.995 35.5231C141.6 37.4918 143.756 38.4762 146.463 38.4762C148.491 38.4762 150.213 37.9664 151.631 36.9469C153.049 35.9274 153.946 34.5446 154.321 32.7985H156.729C156.284 35.2711 155.147 37.2106 153.319 38.6168C151.491 40.0114 149.2 40.7086 146.446 40.7086ZM161.149 40.3043V14.9391H163.469V40.3043H161.149ZM183.375 22.0231V40.3043H181.178V36.9117H181.125C180.633 38.0485 179.854 38.9508 178.787 39.6188C177.733 40.275 176.491 40.6031 175.061 40.6031C173.08 40.6031 171.51 40.0055 170.35 38.8102C169.19 37.6031 168.61 35.9684 168.61 33.9059V22.0231H170.948V33.5016C170.948 35.1188 171.358 36.361 172.178 37.2281C173.01 38.0953 174.194 38.5289 175.729 38.5289C177.323 38.5289 178.606 38.0133 179.578 36.9821C180.563 35.9508 181.055 34.5797 181.055 32.8688V22.0231H183.375ZM197.252 40.6031C195.811 40.6031 194.528 40.234 193.403 39.4957C192.289 38.7457 191.457 37.7262 190.906 36.4371H190.854V40.3043H188.621V14.9391H190.959V25.8375H191.012C191.539 24.5719 192.36 23.5699 193.473 22.8317C194.586 22.0934 195.852 21.7242 197.27 21.7242C199.567 21.7242 201.424 22.5914 202.842 24.3258C204.272 26.0485 204.987 28.3278 204.987 31.1637C204.987 33.9996 204.272 36.2848 202.842 38.0192C201.424 39.7418 199.561 40.6031 197.252 40.6031ZM196.813 23.7809C195.09 23.7809 193.678 24.4664 192.576 25.8375C191.487 27.2086 190.942 28.984 190.942 31.1637C190.942 33.3551 191.487 35.1364 192.576 36.5074C193.678 37.8668 195.09 38.5465 196.813 38.5465C198.571 38.5465 199.971 37.8785 201.014 36.5426C202.069 35.1949 202.596 33.402 202.596 31.1637C202.596 28.9254 202.069 27.1383 201.014 25.8024C199.971 24.4547 198.571 23.7809 196.813 23.7809Z" fill="white"/>
</svg>
