<svg width="72" height="37" viewBox="0 0 72 37" fill="none" xmlns="http://www.w3.org/2000/svg">
<path d="M6.27539 31H2.33789V5.63477H6.27539V17.7109H6.43359L17.0332 5.63477H21.709L11.6543 16.8672L22.5527 31H17.666L8.87695 19.5742L6.27539 22.5449V31ZM30.1015 31H26.164V5.63477H42.0019V9.02734H30.1015V17.0605H40.9999V20.3828H30.1015V31ZM57.2147 31.4219C53.6522 31.4219 50.8221 30.2441 48.7245 27.8887C46.6385 25.5332 45.5955 22.3398 45.5955 18.3086C45.5955 14.3008 46.6444 11.1191 48.742 8.76367C50.8397 6.39648 53.6639 5.21289 57.2147 5.21289C60.0975 5.21289 62.5291 6.02734 64.5096 7.65625C66.4901 9.27344 67.6444 11.4004 67.9725 14.0371H64.0702C63.7186 12.4082 62.9159 11.1074 61.662 10.1348C60.4198 9.15039 58.9373 8.6582 57.2147 8.6582C54.9061 8.6582 53.0604 9.53711 51.6776 11.2949C50.3065 13.041 49.6209 15.3789 49.6209 18.3086C49.6209 21.2734 50.3065 23.6289 51.6776 25.375C53.0487 27.1094 54.9002 27.9766 57.2323 27.9766C58.9901 27.9766 60.4666 27.5488 61.662 26.6934C62.869 25.8379 63.6717 24.6426 64.0702 23.1074H67.9901C67.5096 25.7324 66.3202 27.7773 64.4217 29.2422C62.535 30.6953 60.1327 31.4219 57.2147 31.4219Z" fill="white"/>
<path d="M8.27539 32H4.33789V6.63477H8.27539V18.7109H8.43359L19.0332 6.63477H23.709L13.6543 17.8672L24.5527 32H19.666L10.877 20.5742L8.27539 23.5449V32ZM32.1015 32H28.164V6.63477H44.0019V10.0273H32.1015V18.0605H42.9999V21.3828H32.1015V32ZM59.2147 32.4219C55.6522 32.4219 52.8221 31.2441 50.7245 28.8887C48.6385 26.5332 47.5955 23.3398 47.5955 19.3086C47.5955 15.3008 48.6444 12.1191 50.742 9.76367C52.8397 7.39648 55.6639 6.21289 59.2147 6.21289C62.0975 6.21289 64.5291 7.02734 66.5096 8.65625C68.4901 10.2734 69.6444 12.4004 69.9725 15.0371H66.0702C65.7186 13.4082 64.9159 12.1074 63.662 11.1348C62.4198 10.1504 60.9373 9.6582 59.2147 9.6582C56.9061 9.6582 55.0604 10.5371 53.6776 12.2949C52.3065 14.041 51.6209 16.3789 51.6209 19.3086C51.6209 22.2734 52.3065 24.6289 53.6776 26.375C55.0487 28.1094 56.9002 28.9766 59.2323 28.9766C60.9901 28.9766 62.4666 28.5488 63.662 27.6934C64.869 26.8379 65.6717 25.6426 66.0702 24.1074H69.9901C69.5096 26.7324 68.3202 28.7773 66.4217 30.2422C64.535 31.6953 62.1327 32.4219 59.2147 32.4219Z" fill="#FE072E" fill-opacity="0.7"/>
</svg>
