<svg width="195" height="36" viewBox="0 0 195 36" fill="none" xmlns="http://www.w3.org/2000/svg">
<path d="M56.875 18.502H54.5898C54.332 17.3184 53.7402 16.3516 52.8145 15.6016C51.9004 14.8516 50.752 14.4766 49.3691 14.4766C47.5762 14.4766 46.1406 15.1445 45.0625 16.4805C43.9961 17.8164 43.4629 19.6094 43.4629 21.8594C43.4629 24.1328 44.002 25.9316 45.0801 27.2559C46.1582 28.5801 47.5938 29.2422 49.3867 29.2422C50.7461 29.2422 51.8828 28.8906 52.7969 28.1875C53.7227 27.4844 54.3203 26.5352 54.5898 25.3398H56.8926C56.6348 27.0977 55.8145 28.5332 54.4316 29.6465C53.0605 30.748 51.373 31.2988 49.3691 31.2988C46.8613 31.2988 44.8516 30.4551 43.3398 28.7676C41.8398 27.0684 41.0898 24.7656 41.0898 21.8594C41.0898 18.9883 41.8398 16.6973 43.3398 14.9863C44.8516 13.2754 46.8555 12.4199 49.3516 12.4199C51.4258 12.4199 53.1367 13.0059 54.4844 14.1777C55.8438 15.3496 56.6406 16.791 56.875 18.502ZM61.2421 5.63477H69.4687C73.2655 5.63477 76.2187 6.74805 78.328 8.97461C80.4374 11.1895 81.4921 14.3008 81.4921 18.3086C81.4921 22.3281 80.4374 25.4512 78.328 27.6777C76.2304 29.8926 73.2773 31 69.4687 31H61.2421V5.63477ZM63.6503 7.81445V28.8203H69.328C72.4452 28.8203 74.8417 27.9121 76.5175 26.0957C78.205 24.2793 79.0487 21.6895 79.0487 18.3262C79.0487 14.9512 78.205 12.3555 76.5175 10.5391C74.8417 8.72266 72.4452 7.81445 69.328 7.81445H63.6503ZM99.3944 28.75C97.8709 30.4492 95.8553 31.2988 93.3475 31.2988C90.8397 31.2988 88.8241 30.4492 87.3006 28.75C85.7772 27.0391 85.0155 24.7422 85.0155 21.8594C85.0155 18.9766 85.7772 16.6855 87.3006 14.9863C88.8358 13.2754 90.8514 12.4199 93.3475 12.4199C95.8553 12.4199 97.8709 13.2754 99.3944 14.9863C100.918 16.6855 101.68 18.9766 101.68 21.8594C101.68 24.7422 100.918 27.0391 99.3944 28.75ZM89.0057 27.2734C90.0838 28.5859 91.5311 29.2422 93.3475 29.2422C95.1639 29.2422 96.6112 28.5859 97.6893 27.2734C98.7791 25.9609 99.3241 24.1562 99.3241 21.8594C99.3241 19.5625 98.7791 17.7578 97.6893 16.4453C96.6112 15.1328 95.1639 14.4766 93.3475 14.4766C91.5311 14.4766 90.0838 15.1328 89.0057 16.4453C87.9276 17.7578 87.3885 19.5625 87.3885 21.8594C87.3885 24.1562 87.9276 25.9609 89.0057 27.2734ZM105.853 31V12.7188H108.051V16.0938H108.103C108.584 14.957 109.345 14.0605 110.388 13.4043C111.443 12.748 112.691 12.4199 114.133 12.4199C116.136 12.4199 117.713 13.0234 118.861 14.2305C120.021 15.4375 120.601 17.0781 120.601 19.1523V31H118.281V19.5215C118.281 17.9277 117.859 16.6914 117.015 15.8125C116.183 14.9336 115 14.4941 113.465 14.4941C111.883 14.4941 110.605 15.0156 109.633 16.0586C108.66 17.1016 108.174 18.4727 108.174 20.1719V31H105.853ZM131.49 29.2949C133.095 29.2949 134.449 28.7969 135.55 27.8008C136.652 26.8047 137.203 25.5801 137.203 24.127V22.1055L131.789 22.4746C130.347 22.5684 129.24 22.9199 128.466 23.5293C127.693 24.127 127.306 24.9297 127.306 25.9375C127.306 26.9336 127.693 27.7422 128.466 28.3633C129.24 28.9844 130.248 29.2949 131.49 29.2949ZM131.015 31.2988C129.211 31.2988 127.746 30.8066 126.621 29.8223C125.507 28.8262 124.951 27.5312 124.951 25.9375C124.951 24.3672 125.513 23.125 126.638 22.2109C127.775 21.2969 129.398 20.7695 131.507 20.6289L137.203 20.2773V18.6953C137.203 17.3711 136.804 16.3398 136.007 15.6016C135.211 14.8516 134.103 14.4766 132.685 14.4766C131.349 14.4766 130.259 14.7871 129.416 15.4082C128.584 16.0293 128.068 16.8965 127.869 18.0098H125.619C125.748 16.3457 126.451 14.998 127.728 13.9668C129.017 12.9355 130.687 12.4199 132.738 12.4199C134.824 12.4199 136.476 12.9648 137.695 14.0547C138.914 15.1445 139.523 16.6211 139.523 18.4844V31H137.308V27.5195H137.256C136.752 28.6562 135.925 29.5703 134.777 30.2617C133.629 30.9531 132.375 31.2988 131.015 31.2988ZM144.664 31V5.63477H146.984V31H144.664ZM159.138 31.2988C156.818 31.2988 154.931 30.4316 153.478 28.6973C152.037 26.9629 151.316 24.6836 151.316 21.8594C151.316 19.0234 152.031 16.7441 153.46 15.0215C154.902 13.2871 156.777 12.4199 159.085 12.4199C160.527 12.4199 161.804 12.7949 162.918 13.5449C164.043 14.2832 164.851 15.2617 165.343 16.4805H165.396V5.63477H167.734V31H165.519V27.1328H165.466C164.939 28.3867 164.113 29.3945 162.988 30.1562C161.863 30.918 160.58 31.2988 159.138 31.2988ZM159.543 14.4766C157.785 14.4766 156.373 15.1504 155.306 16.498C154.24 17.8457 153.707 19.6328 153.707 21.8594C153.707 24.0859 154.24 25.873 155.306 27.2207C156.373 28.5684 157.785 29.2422 159.543 29.2422C161.289 29.2422 162.701 28.5625 163.779 27.2031C164.869 25.8438 165.414 24.0625 165.414 21.8594C165.414 19.6562 164.869 17.875 163.779 16.5156C162.701 15.1562 161.289 14.4766 159.543 14.4766ZM175.089 14.0898H173.138L174.826 5.63477H177.304L175.089 14.0898ZM179.439 17.6055C179.439 16.0938 180.048 14.8516 181.267 13.8789C182.497 12.9063 184.079 12.4199 186.013 12.4199C187.876 12.4199 189.417 12.9238 190.636 13.9316C191.867 14.9277 192.54 16.2285 192.658 17.834H190.425C190.285 16.7441 189.816 15.8887 189.019 15.2676C188.234 14.6465 187.208 14.3359 185.943 14.3359C184.701 14.3359 183.687 14.6348 182.902 15.2324C182.128 15.8184 181.742 16.5684 181.742 17.4824C181.742 18.2324 182.023 18.8477 182.585 19.3281C183.148 19.7969 184.038 20.1836 185.257 20.4883L187.964 21.1387C189.792 21.5957 191.087 22.1934 191.849 22.9316C192.611 23.6699 192.992 24.6953 192.992 26.0078C192.992 27.5547 192.335 28.8262 191.023 29.8223C189.71 30.8066 188.023 31.2988 185.96 31.2988C184.003 31.2988 182.374 30.8008 181.074 29.8047C179.785 28.8086 179.064 27.502 178.911 25.8848H181.232C181.396 26.9746 181.906 27.8301 182.761 28.4512C183.628 29.0723 184.742 29.3828 186.101 29.3828C187.472 29.3828 188.574 29.0898 189.406 28.5039C190.238 27.918 190.654 27.1445 190.654 26.1836C190.654 25.3867 190.396 24.7598 189.88 24.3027C189.376 23.834 188.515 23.4531 187.296 23.1602L184.326 22.4219C182.673 22.0117 181.443 21.4141 180.634 20.6289C179.837 19.832 179.439 18.8242 179.439 17.6055Z" fill="#FE072E" fill-opacity="0.7"/>
<path d="M5.28 34C4.96 34 4.688 33.904 4.464 33.712C4.272 33.488 4.176 33.216 4.176 32.896V1.552C4.176 1.2 4.272 0.927999 4.464 0.735999C4.688 0.511998 4.96 0.399998 5.28 0.399998H7.68C8.192 0.399998 8.608 0.655998 8.928 1.168L19.056 20.56L29.28 1.168C29.344 0.975998 29.472 0.799997 29.664 0.639997C29.888 0.479998 30.16 0.399998 30.48 0.399998H32.832C33.184 0.399998 33.456 0.511998 33.648 0.735999C33.872 0.927999 33.984 1.2 33.984 1.552V32.896C33.984 33.216 33.872 33.488 33.648 33.712C33.424 33.904 33.152 34 32.832 34H30.48C30.16 34 29.888 33.904 29.664 33.712C29.472 33.488 29.376 33.216 29.376 32.896V9.28L21.36 24.928C21.04 25.6 20.528 25.936 19.824 25.936H18.336C17.632 25.936 17.12 25.6 16.8 24.928L8.736 9.28V32.896C8.736 33.216 8.624 33.488 8.4 33.712C8.208 33.904 7.952 34 7.632 34H5.28Z" fill="#FFCE22"/>
</svg>
