<svg width="132" height="24" viewBox="0 0 132 24" fill="none" xmlns="http://www.w3.org/2000/svg">
<path d="M12 2C17.5234 2 22 6.47656 22 12C22 16.9922 18.3438 21.1289 13.5625 21.8789V14.8906H15.8926L16.3359 12H13.5625V10.125C13.5625 9.33398 13.9492 8.5625 15.1914 8.5625H16.4531V6.10156C16.4531 6.10156 15.3086 5.90625 14.2148 5.90625C11.9297 5.90625 10.4375 7.29102 10.4375 9.79688V12H7.89844V14.8906H10.4375V21.8789C5.65625 21.1289 2 16.9922 2 12C2 6.47656 6.47656 2 12 2Z" fill="black"/>
<path d="M115.556 2C112.488 2 110 4.48778 110 7.55556V16.4444C110 19.5122 112.488 22 115.556 22H124.444C127.512 22 130 19.5122 130 16.4444V7.55556C130 4.48778 127.512 2 124.444 2H115.556ZM126.667 4.22222C127.28 4.22222 127.778 4.72 127.778 5.33333C127.778 5.94667 127.28 6.44444 126.667 6.44444C126.053 6.44444 125.556 5.94667 125.556 5.33333C125.556 4.72 126.053 4.22222 126.667 4.22222ZM120 6.44444C123.068 6.44444 125.556 8.93222 125.556 12C125.556 15.0678 123.068 17.5556 120 17.5556C116.932 17.5556 114.444 15.0678 114.444 12C114.444 8.93222 116.932 6.44444 120 6.44444ZM120 8.66667C119.116 8.66667 118.268 9.01786 117.643 9.64298C117.018 10.2681 116.667 11.1159 116.667 12C116.667 12.8841 117.018 13.7319 117.643 14.357C118.268 14.9821 119.116 15.3333 120 15.3333C120.884 15.3333 121.732 14.9821 122.357 14.357C122.982 13.7319 123.333 12.8841 123.333 12C123.333 11.1159 122.982 10.2681 122.357 9.64298C121.732 9.01786 120.884 8.66667 120 8.66667Z" fill="black"/>
<path fill-rule="evenodd" clip-rule="evenodd" d="M70.6333 8.00667L67.4467 16.7689C67.29 17.2 66.6833 17.21 66.5133 16.7833L65 13L61.2156 11.4867C60.7889 11.3156 60.7989 10.7089 61.23 10.5522L69.9922 7.36556C70.3911 7.22111 70.7789 7.60778 70.6333 8.00667ZM66 2C60.4767 2 56 6.47667 56 12C56 17.5222 60.4767 22 66 22C71.5222 22 76 17.5222 76 12C76 6.47667 71.5222 2 66 2Z" fill="black"/>
</svg>
