<svg width="158" height="158" viewBox="0 0 158 158" fill="none" xmlns="http://www.w3.org/2000/svg">
<path d="M79.1268 151.356C120.845 151.356 154.664 118.947 154.664 78.9678C154.664 38.989 120.845 6.57983 79.1268 6.57983C37.4088 6.57983 3.5896 38.989 3.5896 78.9678C3.5896 118.947 37.4088 151.356 79.1268 151.356Z" fill="#F1F8EF"/>
<path d="M52.9185 65.167L52.2719 61.6666H50.7224C50.2207 61.5012 49.7947 61.1617 49.5215 60.7096C49.2483 60.2574 49.1458 59.7224 49.2327 59.2013C49.3195 58.6802 49.5899 58.2074 49.995 57.8683C50.4001 57.5292 50.9131 57.3462 51.4414 57.3524H47.392C47.0992 57.3503 46.8088 57.4057 46.5375 57.5158C46.2661 57.6258 46.0191 57.7882 45.8105 57.9936C45.6019 58.1991 45.4359 58.4437 45.3218 58.7133C45.2077 58.983 45.1479 59.2725 45.1457 59.5653C45.1435 59.8581 45.199 60.1484 45.309 60.4198C45.419 60.6911 45.5814 60.9381 45.7869 61.1467C45.9924 61.3553 46.2369 61.5214 46.5066 61.6354C46.7762 61.7495 47.0657 61.8094 47.3585 61.8116H48.2476L48.8718 65.1838C48.9833 65.7897 49.3037 66.3374 49.7773 66.7315C50.2508 67.1256 50.8476 67.3412 51.4637 67.3408H55.5103C54.8921 67.3394 54.294 67.1211 53.8203 66.7238C53.3467 66.3265 53.0275 65.7756 52.9185 65.167Z" fill="#D4E0F3"/>
<path d="M74.4475 37.2754C73.7229 37.2754 73.0067 37.3088 72.2988 37.3618C60.2703 38.2508 50.5356 46.5587 48.3673 57.3525H52.414C54.5822 46.5615 64.317 38.2508 76.3454 37.3618H76.4708C75.8048 37.3033 75.1303 37.2754 74.4475 37.2754Z" fill="#D4E0F3"/>
<path d="M69.4478 41.935C69.144 42.0604 68.8402 42.1914 68.5476 42.328C68.4432 42.3729 68.3486 42.4379 68.2694 42.5194C68.1902 42.6009 68.1278 42.6972 68.0859 42.8028C68.0439 42.9084 68.0233 43.0213 68.025 43.1349C68.0268 43.2486 68.0509 43.3607 68.0961 43.465L68.1156 43.5096C68.2313 43.7237 68.4245 43.8853 68.6557 43.9615C68.8868 44.0377 69.1382 44.0226 69.3586 43.9193C69.6373 43.7939 69.916 43.674 70.1947 43.5598C70.4086 43.478 70.5815 43.3148 70.6755 43.1059C70.7695 42.897 70.777 42.6594 70.6963 42.445L70.6796 42.4032C70.5743 42.1843 70.3887 42.0144 70.1613 41.9288C69.934 41.8432 69.6825 41.8484 69.4589 41.9434L69.4478 41.935Z" fill="#364DA1"/>
<path d="M65.8888 43.7744C63.6172 45.2012 61.6477 47.0599 60.092 49.2452C60.0263 49.3366 59.9793 49.4401 59.9537 49.5497C59.9281 49.6594 59.9244 49.773 59.9428 49.884C59.9611 49.9951 60.0013 50.1015 60.0608 50.197C60.1204 50.2925 60.1982 50.3754 60.2899 50.4408L60.34 50.4714C60.5448 50.603 60.7918 50.6519 61.0313 50.6085C61.2708 50.565 61.4849 50.4324 61.6304 50.2373C63.0523 48.2442 64.8513 46.5494 66.9256 45.2487C67.1183 45.1295 67.2559 44.9388 67.3081 44.7183C67.3604 44.4978 67.323 44.2656 67.2043 44.0726C67.1951 44.0553 67.1848 44.0385 67.1736 44.0225C67.0289 43.8266 66.8154 43.6927 66.5761 43.6477C66.3367 43.6027 66.0892 43.65 65.8832 43.78L65.8888 43.7744Z" fill="#364DA1"/>
<path d="M111.79 55.4601H109.839C107.005 43.6992 95.9293 34.9789 82.6077 33.7025V30.7288C83.3257 30.2245 83.9144 29.5577 84.326 28.7829C84.7377 28.008 84.9606 27.147 84.9766 26.2697C84.9766 23.2208 82.3792 20.7488 79.1714 20.7488C75.9636 20.7488 73.3662 23.2208 73.3662 26.2697C73.3584 27.158 73.5773 28.0337 74.002 28.8139C74.4267 29.5941 75.0434 30.2532 75.7936 30.7288V33.722C62.316 34.9984 51.2686 43.7188 48.4287 55.4796H46.5419C44.644 55.4796 43.0304 56.8731 42.9746 58.6902C42.9189 60.5073 44.435 62.0513 46.3608 62.1042H46.659L47.247 65.2144C47.4408 66.0987 47.9359 66.8881 48.6478 67.4474C49.3596 68.0067 50.2437 68.301 51.1487 68.2801H107.019C107.908 68.2934 108.776 68.0042 109.48 67.4599C110.183 66.9156 110.682 66.1485 110.892 65.2841L111.592 62.0931H111.726C113.624 62.0931 115.237 60.6996 115.293 58.8853C115.349 57.071 113.833 55.5242 111.907 55.4685L111.79 55.4601ZM75.1777 26.2586C75.1777 24.1851 76.9447 22.5046 79.1268 22.5046C81.309 22.5046 83.0731 24.1767 83.0731 26.2558C83.0731 28.3348 81.3062 30.0098 79.1268 30.0098C76.9474 30.007 75.1805 28.3293 75.1777 26.2586ZM80.7516 31.5788V33.5799C80.1329 33.5576 79.7204 33.5464 79.2021 33.5464C78.6837 33.5464 78.118 33.5464 77.6553 33.5799V31.5788C78.1599 31.7127 78.68 31.7793 79.2021 31.7767C79.7243 31.7682 80.244 31.7018 80.7516 31.5788ZM79.138 35.3133C92.9696 35.3133 104.887 43.7243 107.933 55.4657H50.3294C53.3755 43.7243 65.2952 35.3133 79.1268 35.3133H79.138ZM111.801 60.3233H62.3076C62.1916 60.3175 62.0756 60.3345 61.9662 60.3735C61.8567 60.4125 61.7561 60.4727 61.6699 60.5506C61.5837 60.6285 61.5137 60.7226 61.4639 60.8275C61.4141 60.9325 61.3854 61.0462 61.3796 61.1622C61.3737 61.2782 61.3908 61.3943 61.4298 61.5037C61.4688 61.6131 61.5289 61.7138 61.6068 61.8C61.6847 61.8862 61.7788 61.9562 61.8838 62.006C61.9887 62.0558 62.1024 62.0844 62.2185 62.0903C62.2481 62.0931 62.278 62.0931 62.3076 62.0903H109.686L109.073 64.9357C108.959 65.3935 108.694 65.7995 108.321 66.0874C107.947 66.3754 107.487 66.5284 107.016 66.5215H51.1404C50.6609 66.5311 50.193 66.3736 49.8168 66.0762C49.4406 65.7788 49.1794 65.3599 49.078 64.8911L48.5346 62.1042H57.0403C57.1563 62.1102 57.2724 62.0934 57.3819 62.0546C57.4914 62.0157 57.5922 61.9557 57.6785 61.878C57.7648 61.8002 57.8349 61.7062 57.8849 61.6013C57.9349 61.4964 57.9637 61.3827 57.9698 61.2667C57.9758 61.1507 57.9589 61.0346 57.9201 60.9251C57.8813 60.8156 57.8213 60.7149 57.7435 60.6286C57.6658 60.5423 57.5718 60.4721 57.4669 60.4221C57.362 60.3722 57.2483 60.3433 57.1323 60.3373H46.4973C46.0728 60.3503 45.6602 60.1965 45.3476 59.909C45.0351 59.6215 44.8475 59.223 44.8252 58.7989C44.8354 58.3773 45.0126 57.977 45.3177 57.6859C45.6229 57.3949 46.0311 57.2368 46.4527 57.2466H111.756C112.181 57.2336 112.593 57.3873 112.906 57.6749C113.219 57.9624 113.406 58.3609 113.428 58.785C113.418 59.2066 113.241 59.6069 112.936 59.8979C112.631 60.189 112.223 60.347 111.801 60.3373V60.3233Z" fill="url(#paint0_linear)"/>
<path d="M27.0333 87.0334L24.7285 83.7058H22.1728V87.0334H19.4082V75.0858H24.5808C25.5267 75.0645 26.4663 75.245 27.337 75.6153C28.0835 75.9261 28.7169 76.4582 29.1518 77.1398C29.5868 77.8214 29.8026 78.6199 29.7701 79.4279C29.7988 80.2324 29.578 81.0261 29.1379 81.7001C28.6979 82.3742 28.0601 82.8957 27.312 83.193L29.9902 87.0334H27.0333ZM26.3338 77.8783C25.899 77.5188 25.2691 77.3404 24.4386 77.3404H22.1728V81.5041H24.4275C25.2636 81.5041 25.8878 81.323 26.3226 80.9467C26.5273 80.7459 26.6899 80.5063 26.8009 80.2419C26.9119 79.9775 26.969 79.6937 26.969 79.4069C26.969 79.1202 26.9119 78.8363 26.8009 78.572C26.6899 78.3076 26.5273 78.068 26.3226 77.8672L26.3338 77.8783Z" fill="#231F20"/>
<path d="M41.202 84.815V87.0446H31.9521V75.0858H40.9818V77.3154H34.7001V79.91H40.2489V82.0615H34.7001V84.8262L41.202 84.815Z" fill="#231F20"/>
<path d="M44.5911 86.855C43.8278 86.6559 43.1079 86.3177 42.4674 85.8573L43.4038 83.7726C43.9606 84.1709 44.5779 84.4767 45.232 84.6784C45.9148 84.9024 46.6287 85.0172 47.3473 85.0184C48.1332 85.0184 48.7129 84.9041 49.0892 84.67C49.2572 84.5793 49.3976 84.445 49.4957 84.2812C49.5938 84.1174 49.6459 83.9301 49.6466 83.7392C49.6487 83.6035 49.6197 83.4691 49.5617 83.3463C49.5038 83.2236 49.4184 83.1158 49.3121 83.0313C49.0598 82.827 48.7701 82.6737 48.4593 82.5798C48.1137 82.4656 47.6427 82.3401 47.0519 82.2036C46.2961 82.0333 45.5514 81.8165 44.8224 81.5542C44.2441 81.3405 43.7299 80.9827 43.3286 80.5147C42.8921 79.976 42.6698 79.2953 42.7043 78.6029C42.6967 77.9323 42.8909 77.2749 43.2617 76.7161C43.6866 76.114 44.2772 75.6483 44.9617 75.3756C45.847 75.0215 46.7957 74.8536 47.7487 74.8823C48.5004 74.884 49.2491 74.9776 49.9782 75.161C50.653 75.3202 51.2984 75.5854 51.89 75.9469L51.0344 78.0343C50.0324 77.4361 48.8905 77.1122 47.7236 77.0951C46.9488 77.0951 46.3765 77.2205 46.0068 77.4714C45.8363 77.574 45.6953 77.7191 45.5976 77.8925C45.4999 78.0659 45.4489 78.2617 45.4494 78.4607C45.4495 78.6605 45.511 78.8554 45.6257 79.0189C45.7404 79.1825 45.9026 79.3067 46.0904 79.3748C46.7196 79.635 47.3731 79.832 48.0413 79.9629C48.7971 80.1332 49.5417 80.35 50.2708 80.6122C50.8461 80.8235 51.3596 81.1751 51.7646 81.6351C52.2031 82.1661 52.4259 82.8425 52.3889 83.5302C52.393 84.1962 52.1936 84.8477 51.8176 85.3974C51.3868 86.0007 50.7905 86.4663 50.1008 86.7379C49.2153 87.0913 48.2669 87.2601 47.3139 87.234C46.3929 87.2369 45.4762 87.1092 44.5911 86.855Z" fill="#231F20"/>
<path d="M56.4438 77.3403H52.6201V75.0857H63.0321V77.3403H59.2084V87.0333H56.4438V77.3403Z" fill="#231F20"/>
<path d="M66.9311 86.4369C65.9637 85.9287 65.1548 85.1641 64.5929 84.2269C64.0396 83.2635 63.7484 82.1719 63.7484 81.0609C63.7484 79.95 64.0396 78.8584 64.5929 77.895C65.1548 76.9577 65.9637 76.1932 66.9311 75.6849C67.9675 75.1591 69.1133 74.885 70.2754 74.885C71.4376 74.885 72.5834 75.1591 73.6198 75.6849C74.5943 76.2045 75.4093 76.9791 75.9775 77.9261C76.5458 78.873 76.846 79.9566 76.846 81.0609C76.846 82.1653 76.5458 83.2489 75.9775 84.1958C75.4093 85.1428 74.5943 85.9174 73.6198 86.4369C72.5834 86.9628 71.4376 87.2369 70.2754 87.2369C69.1133 87.2369 67.9675 86.9628 66.9311 86.4369ZM72.1956 84.3969C72.7606 84.0787 73.225 83.6085 73.5361 83.0397C73.8565 82.4288 74.0238 81.7493 74.0238 81.0595C74.0238 80.3698 73.8565 79.6903 73.5361 79.0794C73.2242 78.5112 72.76 78.0412 72.1956 77.7222C71.6092 77.4039 70.9525 77.2371 70.2852 77.2371C69.6179 77.2371 68.9612 77.4039 68.3747 77.7222C67.8104 78.0412 67.3462 78.5112 67.0342 79.0794C66.7139 79.6903 66.5466 80.3698 66.5466 81.0595C66.5466 81.7493 66.7139 82.4288 67.0342 83.0397C67.3454 83.6085 67.8098 84.0787 68.3747 84.3969C68.9606 84.7169 69.6176 84.8847 70.2852 84.8847C70.9528 84.8847 71.6097 84.7169 72.1956 84.3969Z" fill="#231F20"/>
<path d="M78.444 81.1613H83.2738V83.2961H78.444V81.1613Z" fill="#231F20"/>
<path d="M93.8279 75.6153C94.5617 75.9297 95.1876 76.4519 95.6283 77.1175C96.0422 77.813 96.2607 78.6074 96.2607 79.4167C96.2607 80.2261 96.0422 81.0205 95.6283 81.716C95.1916 82.3852 94.5645 82.9084 93.8279 83.2181C92.9563 83.5847 92.0169 83.7623 91.0716 83.7393H88.6665V87.0334H85.9019V75.0858H91.0716C92.0176 75.0643 92.9573 75.2448 93.8279 75.6153ZM92.8051 80.9495C93.0097 80.7501 93.1723 80.5118 93.2834 80.2485C93.3944 79.9853 93.4516 79.7024 93.4516 79.4167C93.4516 79.131 93.3944 78.8482 93.2834 78.5849C93.1723 78.3217 93.0097 78.0833 92.8051 77.8839C92.374 77.5235 91.7423 77.3442 90.91 77.346H88.6581V81.493H90.91C91.7461 81.4893 92.3778 81.3081 92.8051 80.9495Z" fill="#231F20"/>
<path d="M105.834 87.0335L103.532 83.7059H100.988V87.0335H98.2229V75.0859H103.395C104.341 75.0649 105.281 75.2454 106.152 75.6154C106.898 75.9256 107.532 76.4576 107.966 77.1394C108.401 77.8213 108.616 78.6201 108.582 79.4279C108.614 80.2337 108.395 81.0296 107.954 81.7052C107.514 82.3808 106.874 82.9027 106.124 83.1986L108.805 87.039L105.834 87.0335ZM105.135 77.8784C104.702 77.5179 104.071 77.3386 103.242 77.3405H100.988V81.5042H103.242C104.073 81.5042 104.703 81.3184 105.135 80.9468C105.34 80.7464 105.503 80.5069 105.615 80.2425C105.726 79.978 105.783 79.694 105.783 79.407C105.783 79.12 105.726 78.836 105.615 78.5716C105.503 78.3071 105.34 78.0676 105.135 77.8672V77.8784Z" fill="#231F20"/>
<path d="M113.2 86.437C112.232 85.9296 111.423 85.1648 110.862 84.2269C110.308 83.2635 110.017 82.172 110.017 81.061C110.017 79.95 110.308 78.8584 110.862 77.895C111.423 76.9572 112.232 76.1924 113.2 75.685C114.236 75.1587 115.382 74.8844 116.544 74.8844C117.706 74.8844 118.852 75.1587 119.889 75.685C120.863 76.2045 121.678 76.9792 122.246 77.9261C122.815 78.873 123.115 79.9566 123.115 81.061C123.115 82.1653 122.815 83.2489 122.246 84.1959C121.678 85.1428 120.863 85.9175 119.889 86.437C118.852 86.9633 117.706 87.2376 116.544 87.2376C115.382 87.2376 114.236 86.9633 113.2 86.437ZM118.464 84.3969C119.028 84.0771 119.492 83.6073 119.805 83.0397C120.123 82.4283 120.29 81.749 120.29 81.0596C120.29 80.3702 120.123 79.6909 119.805 79.0795C119.491 78.5125 119.028 78.0429 118.464 77.7222C117.877 77.4039 117.22 77.2372 116.553 77.2372C115.885 77.2372 115.228 77.4039 114.641 77.7222C114.078 78.0429 113.614 78.5125 113.3 79.0795C112.982 79.6909 112.815 80.3702 112.815 81.0596C112.815 81.749 112.982 82.4283 113.3 83.0397C113.613 83.6073 114.077 84.0771 114.641 84.3969C115.227 84.717 115.885 84.8847 116.553 84.8847C117.221 84.8847 117.878 84.717 118.464 84.3969Z" fill="#231F20"/>
<path d="M127.937 77.3042V80.4618H133.467V82.6914H127.937V87.0446H125.173V75.0858H134.2V77.3154L127.937 77.3042Z" fill="#231F20"/>
<path d="M136.078 75.0858H138.843V87.0334H136.078V75.0858Z" fill="#231F20"/>
<path d="M39.5383 100.887C39.34 101.047 39.1143 101.169 38.8722 101.247C38.6184 101.323 38.3542 101.36 38.0891 101.355C38.0055 101.35 37.9226 101.338 37.8411 101.319C37.7268 101.297 37.5958 101.266 37.4481 101.23L36.9799 101.116L36.5117 101.002C36.364 100.965 36.233 100.935 36.1104 100.912C36.0279 100.893 35.944 100.881 35.8596 100.876C35.7546 100.873 35.6507 100.898 35.5586 100.949C35.4105 101.03 35.2737 101.13 35.1517 101.247C35.1221 101.285 35.0794 101.311 35.0318 101.319C34.9761 101.319 34.9482 101.289 34.9482 101.224C34.9606 101.121 35.0043 101.024 35.0736 100.946C35.1622 100.817 35.2703 100.704 35.3941 100.609C35.5333 100.507 35.685 100.425 35.8456 100.363C36.0007 100.297 36.1674 100.262 36.3361 100.26C36.474 100.266 36.6107 100.288 36.743 100.327L37.2642 100.469C37.4509 100.522 37.6432 100.57 37.8383 100.614C38.0259 100.656 38.2174 100.678 38.4096 100.681C38.6639 100.684 38.918 100.67 39.1704 100.639C39.3535 100.617 39.524 100.534 39.6554 100.405C39.6721 100.308 39.6832 100.207 39.6916 100.104C39.6999 100.001 39.6916 99.9007 39.6916 99.8059C39.6943 99.4168 39.6418 99.0293 39.5355 98.6549C39.4409 98.307 39.2852 97.9786 39.0757 97.6851C38.8788 97.4103 38.625 97.1812 38.3316 97.0134C38.0296 96.8439 37.6885 96.7565 37.3422 96.7598C36.7558 96.7404 36.1792 96.9137 35.7007 97.2531C35.4789 97.4245 35.2966 97.6416 35.1663 97.8898C35.036 98.1379 34.9606 98.4113 34.9454 98.6912C34.8981 99.1621 34.7559 99.4046 34.5162 99.4213C34.3239 99.4213 34.2376 99.3099 34.2376 99.0869C34.2428 98.7545 34.3208 98.4273 34.4661 98.1282C34.6226 97.7929 34.84 97.4896 35.1071 97.2336C35.3948 96.9594 35.7276 96.7369 36.0909 96.5759C36.4847 96.4011 36.9114 96.3127 37.3422 96.3167C37.808 96.3085 38.2707 96.3947 38.7022 96.5703C39.0848 96.7277 39.4254 96.9719 39.6972 97.2838C39.9731 97.6047 40.1791 97.9796 40.3019 98.3846C40.4433 98.8449 40.5119 99.3245 40.5054 99.8059C40.5027 100.25 40.4408 100.691 40.3214 101.119C40.1936 101.573 40.0209 102.014 39.8059 102.434C39.5853 102.86 39.324 103.265 39.0255 103.641C38.7353 104.009 38.4012 104.34 38.0306 104.627C37.681 104.905 37.2934 105.131 36.8796 105.299C36.4862 105.461 36.0648 105.544 35.6394 105.544C35.3697 105.544 35.1007 105.516 34.8367 105.461C34.5668 105.407 34.3065 105.313 34.0648 105.182C33.8337 105.058 33.6329 104.885 33.4767 104.675C33.3162 104.445 33.2341 104.169 33.2426 103.889C33.2282 103.701 33.2489 103.512 33.3039 103.331C33.3168 103.3 33.3382 103.272 33.3657 103.252C33.3933 103.232 33.4259 103.22 33.46 103.217C33.4962 103.213 33.5327 103.221 33.5632 103.241C33.5938 103.261 33.6164 103.291 33.6272 103.326C33.6577 103.431 33.6773 103.54 33.6857 103.649C33.6995 103.859 33.773 104.06 33.8975 104.229C34.0229 104.404 34.1786 104.555 34.3574 104.675C34.7381 104.925 35.1835 105.06 35.6394 105.062C36.1262 105.062 36.6052 104.941 37.0329 104.708C37.4898 104.466 37.8995 104.145 38.2424 103.758C38.61 103.345 38.9169 102.883 39.1537 102.384C39.4016 101.873 39.5636 101.325 39.6331 100.762L39.5383 100.887Z" fill="#231F20"/>
<path d="M41.1799 103.878L40.8315 104.861C40.7869 104.998 40.7116 105.123 40.6113 105.227C40.5645 105.281 40.5063 105.325 40.4408 105.355C40.3754 105.384 40.3042 105.4 40.2323 105.399C40.2025 105.403 40.1722 105.396 40.1478 105.378C40.1234 105.361 40.1068 105.334 40.1013 105.305C40.1077 105.25 40.1199 105.195 40.1375 105.143C40.1598 105.059 40.1933 104.965 40.2323 104.864L41.2049 102.192C41.3008 101.966 41.3609 101.727 41.3833 101.484C41.3833 101.414 41.3443 101.378 41.2635 101.378C41.1715 101.389 41.0846 101.425 41.0126 101.484C40.9502 101.537 40.8755 101.575 40.7953 101.592C40.765 101.596 40.7344 101.588 40.7099 101.57C40.6855 101.552 40.6691 101.525 40.6643 101.495V101.461C40.6643 101.397 40.7228 101.319 40.8371 101.227C40.9666 101.124 41.1035 101.031 41.2468 100.949C41.3966 100.865 41.5521 100.791 41.7122 100.728C41.8205 100.679 41.9363 100.648 42.055 100.636C42.1832 100.636 42.2473 100.692 42.2473 100.806C42.2305 100.947 42.1939 101.084 42.1386 101.213L41.4084 103.251L43.3593 101.526C44.0365 100.935 44.5604 100.636 44.9283 100.636C45.1513 100.636 45.2627 100.729 45.2627 100.915C45.2662 100.945 45.2639 100.975 45.2558 101.003C45.2478 101.032 45.2342 101.058 45.2158 101.082C45.1974 101.105 45.1746 101.124 45.1487 101.139C45.1228 101.153 45.0943 101.163 45.0649 101.166C44.9726 101.18 44.8795 101.188 44.7862 101.188C44.6922 101.19 44.5987 101.202 44.5075 101.225C44.3423 101.267 44.1845 101.333 44.0393 101.422C43.8739 101.523 43.7173 101.638 43.5711 101.765L42.6792 102.559L43.5153 104.466C43.6268 104.697 43.7299 104.814 43.8247 104.814C43.8725 104.814 43.9192 104.8 43.9584 104.772L44.0839 104.675L44.2037 104.58C44.2317 104.555 44.2669 104.541 44.304 104.538C44.4016 104.538 44.4489 104.605 44.4489 104.742C44.4489 104.781 44.4099 104.839 44.3347 104.914C44.2502 104.999 44.1567 105.073 44.056 105.137C43.9479 105.209 43.8342 105.271 43.716 105.324C43.6211 105.368 43.5192 105.394 43.415 105.402C43.2645 105.402 43.1363 105.26 43.0081 104.981L42.172 103.005L41.1799 103.878Z" fill="#231F20"/>
<path d="M47.8796 100.642C48.0213 100.644 48.1628 100.654 48.3032 100.673C48.4405 100.692 48.5765 100.72 48.7101 100.756C48.821 100.786 48.925 100.837 49.0167 100.907C49.0517 100.931 49.0808 100.963 49.1015 101C49.1223 101.037 49.1343 101.079 49.1365 101.121C49.1365 101.4 49.0446 101.517 48.8578 101.517C48.7762 101.518 48.6957 101.498 48.6244 101.458C48.553 101.419 48.4932 101.361 48.4509 101.291C48.3626 101.194 48.2519 101.121 48.1285 101.076C48.0051 101.032 47.8728 101.019 47.7431 101.038C47.4523 101.034 47.1677 101.122 46.9293 101.289C46.6873 101.458 46.4801 101.673 46.3189 101.921C46.1469 102.187 46.0155 102.478 45.9288 102.782C45.8395 103.081 45.7926 103.39 45.7894 103.702C45.7899 103.881 45.8086 104.059 45.8451 104.234C45.876 104.393 45.9345 104.545 46.0179 104.683C46.0987 104.816 46.2137 104.925 46.3509 104.999C46.4882 105.072 46.6427 105.108 46.7983 105.101C46.9123 105.099 47.0253 105.078 47.1327 105.04C47.2552 105 47.3737 104.948 47.4867 104.886C47.601 104.823 47.7076 104.746 47.8044 104.658C47.8929 104.579 47.9657 104.485 48.019 104.379C48.1388 104.156 48.2475 104.045 48.3422 104.045C48.437 104.045 48.4398 104.095 48.4398 104.198C48.4323 104.347 48.3841 104.49 48.3004 104.613C48.1981 104.773 48.0689 104.913 47.9186 105.029C47.7411 105.165 47.545 105.276 47.3362 105.357C47.104 105.45 46.8559 105.496 46.606 105.494C46.3979 105.495 46.1919 105.452 46.0012 105.369C45.8171 105.286 45.6513 105.168 45.5135 105.02C45.375 104.871 45.2671 104.696 45.1958 104.505C45.1199 104.303 45.0821 104.09 45.0843 103.875C45.0841 103.46 45.1655 103.049 45.324 102.665C45.4773 102.287 45.692 101.937 45.9594 101.629C46.2127 101.337 46.5167 101.093 46.8568 100.91C47.1706 100.738 47.5219 100.646 47.8796 100.642Z" fill="#231F20"/>
<path d="M51.5082 100.812C51.494 101.044 51.4242 101.27 51.3047 101.47C51.4637 101.338 51.6344 101.222 51.8148 101.121C51.9946 101.022 52.1808 100.934 52.3721 100.859C52.5433 100.792 52.7194 100.738 52.8989 100.698C53.0386 100.664 53.1816 100.645 53.3253 100.642C53.6207 100.642 53.7684 100.812 53.7684 101.146C53.7541 101.395 53.6936 101.639 53.59 101.865L52.5812 104.441C52.5403 104.53 52.5086 104.623 52.4864 104.719C52.4841 104.736 52.485 104.753 52.4892 104.769C52.4934 104.785 52.5008 104.8 52.5109 104.813C52.5211 104.826 52.5337 104.837 52.5482 104.846C52.5626 104.854 52.5786 104.859 52.5951 104.861H52.6313C52.6755 104.856 52.7181 104.842 52.7567 104.82L52.9351 104.736L53.1107 104.652C53.1473 104.63 53.1881 104.616 53.2305 104.611C53.2946 104.611 53.3253 104.65 53.3253 104.73C53.3188 104.777 53.3019 104.821 53.2758 104.859C53.2497 104.898 53.2152 104.93 53.1748 104.953C53.0642 105.035 52.9456 105.105 52.8208 105.162C52.6874 105.226 52.5496 105.28 52.4084 105.324C52.3058 105.36 52.199 105.383 52.0907 105.391C51.9067 105.391 51.812 105.302 51.812 105.126C51.8448 104.887 51.9095 104.654 52.0043 104.432L52.9044 101.924C52.9679 101.771 53.0083 101.609 53.0243 101.445C53.0243 101.269 52.924 101.18 52.7233 101.18C52.5417 101.186 52.363 101.227 52.1966 101.3C51.9988 101.383 51.8116 101.49 51.6392 101.617C51.4628 101.746 51.3003 101.893 51.1542 102.055C51.0237 102.196 50.9182 102.358 50.8421 102.534L49.9308 104.847C49.8915 104.947 49.839 105.041 49.7747 105.126C49.7229 105.2 49.6552 105.261 49.5765 105.305C49.4979 105.349 49.4104 105.374 49.3204 105.38C49.2904 105.382 49.2605 105.374 49.2363 105.356C49.2122 105.338 49.1955 105.312 49.1895 105.282C49.2178 105.13 49.2617 104.982 49.3204 104.839L50.3014 102.155C50.3996 101.932 50.4762 101.699 50.53 101.461C50.53 101.389 50.4993 101.353 50.4352 101.353C50.3441 101.362 50.2583 101.4 50.19 101.461C50.1263 101.516 50.0494 101.552 49.967 101.567C49.952 101.57 49.9366 101.569 49.9219 101.565C49.9071 101.562 49.8932 101.555 49.881 101.546C49.8688 101.537 49.8585 101.526 49.8508 101.512C49.8431 101.499 49.8381 101.485 49.836 101.47C49.8332 101.459 49.8332 101.447 49.836 101.436C49.836 101.381 49.889 101.305 49.9977 101.213C50.1199 101.107 50.2525 101.014 50.3934 100.935C50.549 100.846 50.7111 100.77 50.8783 100.706C51.0152 100.648 51.1617 100.616 51.3103 100.611C51.4469 100.642 51.5082 100.698 51.5082 100.812Z" fill="#231F20"/>
<path d="M54.769 104.142C54.8414 104.782 55.1647 105.101 55.7388 105.101C56.2419 105.11 56.7284 104.921 57.0933 104.574C57.2215 104.446 57.3023 104.382 57.3329 104.382C57.4221 104.382 57.4667 104.429 57.4667 104.527C57.4475 104.63 57.3922 104.723 57.3106 104.789C57.0824 105.023 56.8079 105.207 56.5046 105.329C56.2014 105.451 55.876 105.508 55.5493 105.497C55.3385 105.512 55.127 105.481 54.9293 105.406C54.7316 105.332 54.5524 105.215 54.4039 105.065C54.1278 104.733 53.9883 104.309 54.0137 103.878C54.0154 103.477 54.093 103.081 54.2422 102.71C54.3891 102.331 54.5972 101.979 54.8581 101.668C55.1089 101.368 55.412 101.115 55.7527 100.923C56.0775 100.74 56.4444 100.644 56.8173 100.645C57.5438 100.645 57.908 100.973 57.9098 101.629C57.9041 101.958 57.8076 102.279 57.6311 102.557C57.444 102.865 57.2022 103.137 56.9177 103.359C56.6143 103.601 56.2748 103.794 55.9116 103.931C55.5469 104.07 55.1596 104.142 54.769 104.142ZM55.6914 103.669C55.9812 103.577 56.2527 103.435 56.4941 103.251C56.7213 103.077 56.9109 102.859 57.0515 102.61C57.1951 102.355 57.2673 102.066 57.2605 101.773C57.2605 101.277 57.071 101.029 56.6864 101.029C56.3965 101.027 56.1128 101.112 55.8726 101.275C55.6279 101.443 55.4194 101.659 55.2595 101.91C54.9234 102.448 54.7412 103.068 54.7327 103.702V103.811C55.0582 103.811 55.3817 103.76 55.6914 103.66V103.669Z" fill="#231F20"/>
<path d="M60.1616 101.47C60.3591 101.221 60.608 101.017 60.8912 100.873C61.1745 100.728 61.4855 100.647 61.8031 100.634C62.4367 100.634 62.7525 101.026 62.7507 101.81C62.7455 102.054 62.7052 102.296 62.6308 102.529C62.5435 102.808 62.4306 103.079 62.2936 103.337C62.148 103.617 61.9783 103.884 61.7864 104.134C61.5942 104.385 61.3766 104.616 61.137 104.822C60.9103 105.023 60.6536 105.186 60.3762 105.307C60.1133 105.426 59.8285 105.487 59.5401 105.488C59.1555 105.488 58.9075 105.38 58.796 105.168L58.4365 106.021C58.2253 106.579 57.9261 107.101 57.5503 107.565C57.4454 107.709 57.3108 107.83 57.1556 107.918C57.0003 108.007 56.828 108.061 56.6501 108.078C56.4912 108.078 56.4104 108.041 56.4104 107.969C56.4104 107.841 56.4968 107.777 56.664 107.777C56.8312 107.777 57.0681 107.621 57.2743 107.303C57.5371 106.865 57.7466 106.397 57.8986 105.909L59.1667 102.169C59.2308 101.969 59.2809 101.813 59.3116 101.695C59.3423 101.578 59.3646 101.503 59.3729 101.461C59.3813 101.42 59.3395 101.355 59.2754 101.355C59.1834 101.366 59.0965 101.403 59.0245 101.461C58.9621 101.515 58.8874 101.552 58.8072 101.57C58.7769 101.574 58.7463 101.566 58.7219 101.548C58.6974 101.53 58.681 101.503 58.6762 101.473V101.439C58.6762 101.383 58.7347 101.305 58.849 101.211C58.9766 101.105 59.1137 101.012 59.2587 100.932C59.4149 100.847 59.577 100.774 59.7436 100.712C59.8725 100.656 60.0102 100.623 60.1505 100.614C60.2787 100.614 60.3428 100.67 60.3428 100.784C60.3374 100.879 60.3186 100.973 60.287 101.063C60.2482 101.195 60.1988 101.323 60.1393 101.447L60.1616 101.47ZM61.4074 101.191C61.0892 101.196 60.7844 101.319 60.5518 101.537C60.276 101.776 60.0407 102.058 59.8551 102.373C59.66 102.702 59.5038 103.053 59.3896 103.418C59.2839 103.726 59.2247 104.048 59.2141 104.374C59.2141 104.85 59.4147 105.09 59.8133 105.09C60.0779 105.075 60.3313 104.977 60.5379 104.811C60.8157 104.612 61.0586 104.368 61.2569 104.089C61.4881 103.78 61.6756 103.441 61.8143 103.081C61.9559 102.718 62.0296 102.333 62.0317 101.944C62.0317 101.436 61.8254 101.18 61.4185 101.18L61.4074 101.191Z" fill="#231F20"/>
<path d="M65.0751 100.642C65.2033 100.642 65.2674 100.698 65.2674 100.812C65.2506 101.044 65.1811 101.269 65.064 101.47C65.1696 101.364 65.2908 101.274 65.4235 101.205C65.6027 101.099 65.7889 101.006 65.9809 100.926C66.1882 100.843 66.4004 100.772 66.6163 100.714C66.8037 100.664 66.9964 100.636 67.1904 100.631C67.3911 100.631 67.4914 100.687 67.4914 100.795C67.4856 100.905 67.461 101.012 67.4189 101.113C67.871 100.813 68.3983 100.646 68.9406 100.631C69.236 100.631 69.3837 100.801 69.3837 101.135C69.3684 101.384 69.307 101.628 69.2026 101.854L68.2216 104.363C68.1693 104.474 68.1291 104.591 68.1017 104.711C68.0994 104.727 68.1004 104.744 68.1046 104.76C68.1088 104.776 68.1162 104.792 68.1263 104.805C68.1364 104.818 68.149 104.829 68.1635 104.837C68.1779 104.846 68.1939 104.851 68.2104 104.853H68.2439C68.2913 104.851 68.3373 104.836 68.3777 104.811L68.5504 104.728L68.7232 104.644C68.76 104.622 68.8008 104.608 68.8431 104.602C68.9072 104.602 68.9406 104.641 68.9406 104.722C68.9406 104.803 68.896 104.845 68.8096 104.92C68.7116 105.002 68.6051 105.074 68.4919 105.135C68.3629 105.203 68.2287 105.262 68.0906 105.31C67.9668 105.353 67.8371 105.378 67.706 105.383C67.5221 105.383 67.4273 105.293 67.4273 105.118C67.4606 104.877 67.5253 104.642 67.6196 104.418L68.517 101.91C68.5829 101.758 68.6234 101.596 68.6368 101.431C68.6368 101.261 68.5365 101.177 68.3386 101.177C68.1602 101.18 67.9837 101.215 67.8175 101.28C67.5968 101.366 67.3887 101.481 67.1988 101.623L65.9168 104.842C65.8617 104.979 65.7824 105.106 65.6827 105.215C65.6344 105.27 65.5747 105.314 65.5078 105.343C65.4409 105.373 65.3683 105.387 65.2953 105.385C65.2145 105.385 65.1755 105.352 65.1755 105.288C65.1793 105.237 65.1887 105.186 65.2033 105.137C65.2323 105.037 65.2667 104.938 65.3064 104.842L66.2902 102.153C66.4714 101.64 66.5689 101.369 66.5689 101.347C66.5689 101.233 66.5076 101.177 66.3794 101.177C66.0786 101.217 65.7919 101.329 65.5433 101.503C65.1253 101.732 64.7928 102.09 64.5958 102.523L63.6844 104.842C63.6292 104.979 63.551 105.105 63.4531 105.215C63.4042 105.27 63.344 105.314 63.2766 105.343C63.2093 105.372 63.1364 105.387 63.063 105.385C62.9821 105.385 62.9431 105.352 62.9431 105.288C62.948 105.237 62.9582 105.186 62.9738 105.137C63.0018 105.038 63.0353 104.94 63.0741 104.845L64.0579 102.161C64.1552 101.936 64.2308 101.703 64.2836 101.464C64.2836 101.394 64.253 101.358 64.1889 101.358C64.1484 101.361 64.1092 101.373 64.0746 101.394L63.9436 101.464L63.8182 101.537C63.7895 101.557 63.7558 101.57 63.7207 101.573C63.7056 101.575 63.6903 101.575 63.6755 101.571C63.6608 101.567 63.6469 101.561 63.6347 101.552C63.6225 101.543 63.6122 101.531 63.6045 101.518C63.5968 101.505 63.5917 101.49 63.5897 101.475C63.5869 101.464 63.5869 101.453 63.5897 101.442C63.5897 101.386 63.6454 101.311 63.7569 101.219C63.8828 101.115 64.017 101.022 64.1582 100.94C64.3138 100.852 64.4759 100.775 64.6431 100.712C64.7821 100.664 64.9282 100.64 65.0751 100.642Z" fill="#231F20"/>
<path d="M71.8445 100.642C71.9727 100.642 72.0368 100.698 72.0368 100.812C72.0352 100.907 72.0173 101.001 71.9839 101.091C71.9477 101.194 71.8975 101.319 71.8334 101.461L71.276 102.855C71.3626 102.791 71.4561 102.737 71.5547 102.693C71.6812 102.646 71.8155 102.623 71.9504 102.626H72.5859C72.7327 102.63 72.879 102.607 73.0178 102.559C73.0723 102.545 73.1233 102.52 73.1674 102.485C73.2115 102.449 73.2479 102.406 73.2742 102.356L73.7201 101.183C73.7537 101.092 73.7938 101.003 73.84 100.918C73.8664 100.875 73.9027 100.838 73.9459 100.812C74.008 100.767 74.0742 100.729 74.1438 100.698C74.2086 100.664 74.2799 100.645 74.3528 100.642C74.3667 100.64 74.3809 100.641 74.3945 100.644C74.4081 100.648 74.4208 100.654 74.432 100.663C74.4431 100.671 74.4525 100.682 74.4595 100.694C74.4664 100.706 74.4709 100.72 74.4726 100.734C74.4754 100.743 74.4754 100.753 74.4726 100.762C74.437 100.913 74.3895 101.061 74.3305 101.205L73.199 104.231C73.1516 104.351 73.1126 104.46 73.0792 104.555C73.0578 104.614 73.042 104.674 73.0318 104.736C73.0318 104.831 73.0736 104.878 73.1516 104.878C73.208 104.877 73.2633 104.862 73.3133 104.836L73.4944 104.753C73.5529 104.725 73.6087 104.697 73.656 104.669C73.6847 104.649 73.7169 104.635 73.7508 104.627C73.7785 104.623 73.8067 104.63 73.8291 104.647C73.8516 104.664 73.8665 104.689 73.8706 104.716C73.8734 104.726 73.8734 104.737 73.8706 104.747C73.8706 104.82 73.8177 104.895 73.709 104.976C73.592 105.061 73.4658 105.133 73.3328 105.19C73.1914 105.254 73.0451 105.306 72.8952 105.346C72.7836 105.379 72.6686 105.4 72.5524 105.408C72.4019 105.408 72.3239 105.327 72.3239 105.168C72.3243 105.069 72.3346 104.97 72.3545 104.872C72.3771 104.777 72.4069 104.684 72.4437 104.594L73.0792 102.905C72.8514 103.053 72.5843 103.129 72.3127 103.122H71.7749C71.6023 103.115 71.4308 103.152 71.276 103.228C71.1711 103.275 71.0848 103.355 71.0307 103.457L70.4734 104.85C70.4144 104.987 70.3355 105.113 70.2393 105.226C70.1934 105.281 70.1356 105.324 70.0703 105.352C70.0049 105.38 69.934 105.392 69.863 105.388C69.8329 105.392 69.8022 105.385 69.7774 105.367C69.7526 105.35 69.7353 105.323 69.7292 105.293C69.7598 105.142 69.8046 104.993 69.863 104.85L70.844 102.166C70.9422 101.942 71.0187 101.709 71.0726 101.47C71.0726 101.4 71.0419 101.364 70.9778 101.364C70.9393 101.367 70.9021 101.38 70.8691 101.4L70.7242 101.47L70.5932 101.542C70.5688 101.561 70.54 101.573 70.5096 101.578C70.4946 101.581 70.4792 101.58 70.4645 101.576C70.4497 101.573 70.4358 101.566 70.4236 101.557C70.4114 101.548 70.4011 101.537 70.3934 101.523C70.3857 101.51 70.3806 101.496 70.3786 101.481C70.3758 101.47 70.3758 101.458 70.3786 101.447C70.3786 101.392 70.4316 101.316 70.5402 101.224C70.6632 101.119 70.7957 101.026 70.936 100.946C71.0919 100.859 71.254 100.783 71.4209 100.72C71.5566 100.67 71.6999 100.644 71.8445 100.642Z" fill="#231F20"/>
<path d="M77.6469 100.642C77.8707 100.64 78.0927 100.683 78.299 100.77C78.4888 100.848 78.6585 100.968 78.7951 101.121C78.9333 101.276 79.041 101.456 79.1128 101.651C79.191 101.857 79.2297 102.077 79.2271 102.297C79.2246 102.685 79.1519 103.068 79.0125 103.429C78.8733 103.802 78.6727 104.148 78.4189 104.455C78.1662 104.759 77.859 105.013 77.5131 105.204C77.1656 105.398 76.7739 105.499 76.376 105.497C76.1595 105.5 75.9448 105.458 75.7462 105.371C75.564 105.29 75.4008 105.171 75.2668 105.023C75.1377 104.871 75.0367 104.698 74.9686 104.51C74.8928 104.309 74.855 104.096 74.8571 103.88C74.8544 103.463 74.9379 103.049 75.1024 102.665C75.2578 102.289 75.4744 101.94 75.7434 101.634C75.9966 101.342 76.3007 101.099 76.6408 100.915C76.9491 100.744 77.2943 100.65 77.6469 100.642ZM77.5187 101.038C77.2305 101.035 76.9481 101.119 76.7077 101.277C76.4621 101.441 76.251 101.651 76.0862 101.896C75.9079 102.156 75.7733 102.443 75.6876 102.746C75.5968 103.052 75.5499 103.369 75.5483 103.688C75.5474 103.869 75.5661 104.049 75.604 104.226C75.6348 104.386 75.6963 104.538 75.7852 104.675C75.8635 104.802 75.9704 104.909 76.0973 104.987C76.2389 105.067 76.4 105.107 76.5628 105.101C76.8608 105.107 77.1531 105.019 77.3988 104.85C77.6424 104.679 77.8498 104.461 78.0092 104.209C78.1786 103.94 78.3073 103.647 78.391 103.34C78.4773 103.035 78.5223 102.72 78.5248 102.403C78.5243 102.236 78.5056 102.07 78.469 101.907C78.4364 101.752 78.377 101.604 78.2934 101.47C78.2141 101.343 78.1063 101.236 77.9785 101.158C77.8401 101.076 77.682 101.035 77.5215 101.038H77.5187Z" fill="#231F20"/>
<path d="M80.4617 104.142C80.5342 104.782 80.8574 105.101 81.4315 105.101C81.9347 105.11 82.4211 104.921 82.786 104.574C82.9142 104.446 82.995 104.382 83.0257 104.382C83.1148 104.382 83.1594 104.429 83.1594 104.527C83.1403 104.63 83.0849 104.723 83.0034 104.789C82.7747 105.023 82.4998 105.207 82.196 105.329C81.8922 105.451 81.5664 105.508 81.2392 105.497C81.0289 105.511 80.8179 105.48 80.6207 105.406C80.4235 105.331 80.2447 105.215 80.0966 105.065C79.8205 104.733 79.681 104.309 79.7064 103.878C79.7082 103.477 79.7857 103.081 79.935 102.71C80.0783 102.331 80.2836 101.979 80.5425 101.668C80.7933 101.368 81.0964 101.115 81.4371 100.923C81.7619 100.74 82.1287 100.644 82.5017 100.645C83.23 100.645 83.5942 100.973 83.5942 101.629C83.5884 101.958 83.492 102.279 83.3155 102.557C83.1284 102.865 82.8866 103.137 82.6021 103.359C82.2986 103.601 81.9591 103.794 81.596 103.931C81.2339 104.069 80.8495 104.141 80.4617 104.142ZM81.3786 103.674C81.6683 103.582 81.9399 103.441 82.1812 103.256C82.4085 103.082 82.5981 102.864 82.7386 102.615C82.8823 102.36 82.9545 102.071 82.9476 101.779C82.9476 101.283 82.7581 101.035 82.3735 101.035C82.0837 101.032 81.7999 101.118 81.5597 101.28C81.315 101.449 81.1066 101.665 80.9466 101.916C80.6105 102.454 80.4284 103.073 80.4199 103.708V103.816C80.7449 103.819 81.0684 103.771 81.3786 103.674Z" fill="#231F20"/>
<path d="M88.5522 101.47C88.7492 101.22 88.9979 101.016 89.2813 100.872C89.5647 100.727 89.876 100.646 90.1937 100.634C90.8236 100.634 91.1385 101.026 91.1385 101.81C91.1347 102.054 91.0943 102.296 91.0186 102.529C90.9323 102.808 90.8204 103.078 90.6842 103.337C90.5367 103.616 90.3661 103.883 90.1742 104.134C89.983 104.385 89.7663 104.616 89.5276 104.822C89.3 105.022 89.0435 105.185 88.7668 105.307C88.5038 105.425 88.219 105.487 87.9307 105.488C87.5489 105.488 87.3009 105.38 87.1894 105.168L86.8299 106.021C86.6213 106.583 86.324 107.108 85.9492 107.576C85.8449 107.72 85.7109 107.841 85.5561 107.929C85.4013 108.018 85.2293 108.072 85.0518 108.089C84.893 108.089 84.8121 108.052 84.8121 107.98C84.8121 107.852 84.8957 107.788 85.063 107.788C85.2636 107.788 85.4671 107.632 85.6761 107.314C85.9391 106.876 86.1477 106.408 86.2976 105.92L87.5684 102.18C87.6325 101.98 87.6799 101.824 87.7105 101.707C87.7412 101.59 87.7635 101.514 87.7719 101.472C87.7802 101.431 87.7412 101.367 87.6771 101.367C87.5842 101.377 87.4962 101.414 87.4235 101.472C87.3621 101.526 87.2883 101.563 87.2089 101.581C87.1939 101.584 87.1785 101.583 87.1638 101.579C87.149 101.576 87.1351 101.569 87.1229 101.56C87.1107 101.551 87.1004 101.539 87.0927 101.526C87.085 101.513 87.08 101.499 87.0779 101.484C87.0751 101.473 87.0751 101.461 87.0779 101.45C87.0779 101.394 87.1337 101.316 87.2507 101.222C87.3769 101.116 87.5131 101.022 87.6576 100.943C87.8141 100.859 87.9761 100.785 88.1425 100.723C88.2724 100.667 88.411 100.634 88.5522 100.625C88.6776 100.625 88.7417 100.681 88.7417 100.795C88.7373 100.89 88.7195 100.984 88.6888 101.074C88.6478 101.206 88.5975 101.334 88.5383 101.459L88.5522 101.47ZM89.798 101.191C89.4792 101.197 89.1739 101.32 88.9396 101.537C88.6646 101.776 88.4302 102.058 88.2456 102.373C88.0497 102.702 87.8926 103.052 87.7774 103.418C87.6712 103.726 87.6129 104.048 87.6046 104.374C87.6046 104.85 87.8025 105.09 88.2038 105.09C88.4684 105.074 88.7216 104.977 88.9284 104.811C89.205 104.61 89.4477 104.367 89.6475 104.089C89.8776 103.78 90.0651 103.44 90.2049 103.081C90.3456 102.718 90.4183 102.332 90.4195 101.943C90.4195 101.436 90.216 101.18 89.8091 101.18L89.798 101.191Z" fill="#231F20"/>
<path d="M94.3992 104.825C94.1787 105.047 93.915 105.221 93.6245 105.336C93.334 105.452 93.0228 105.507 92.7103 105.497C91.8213 105.497 91.3782 105.132 91.3782 104.407C91.3825 104.212 91.4212 104.018 91.4924 103.836C91.5663 103.63 91.6596 103.431 91.7711 103.242C91.8908 103.053 92.032 102.878 92.192 102.721C92.3352 102.578 92.5009 102.459 92.6825 102.37C92.6606 102.279 92.6485 102.185 92.6462 102.091C92.6466 101.895 92.6985 101.703 92.7967 101.534C92.8999 101.354 93.0383 101.197 93.2036 101.071C93.3843 100.936 93.5844 100.829 93.7972 100.754C94.0285 100.673 94.2716 100.633 94.5163 100.634C95.4499 100.634 95.9097 101.091 95.9097 101.999C95.8936 102.205 95.8456 102.407 95.7676 102.598L95.096 104.432C95.058 104.523 95.0255 104.616 94.9984 104.711C94.9944 104.744 95.0036 104.778 95.0239 104.804C95.0442 104.831 95.074 104.848 95.1071 104.853H95.1433C95.1875 104.848 95.2301 104.833 95.2687 104.811L95.4555 104.728C95.5196 104.7 95.5753 104.672 95.6283 104.644C95.6628 104.622 95.7018 104.608 95.7425 104.602C95.8066 104.602 95.8373 104.641 95.8373 104.722C95.8313 104.768 95.8149 104.812 95.7893 104.851C95.7637 104.889 95.7296 104.922 95.6896 104.945C95.5776 105.026 95.4592 105.098 95.3356 105.16C95.2025 105.226 95.0635 105.28 94.9204 105.321C94.8176 105.355 94.7107 105.375 94.6027 105.38C94.4187 105.38 94.324 105.293 94.324 105.118C94.3351 105.017 94.3605 104.919 94.3992 104.825ZM94.2682 102.038C93.9813 102.038 93.6995 102.114 93.4517 102.258C93.1971 102.406 92.9684 102.594 92.7744 102.816C92.5823 103.031 92.4244 103.275 92.3062 103.538C92.199 103.764 92.1401 104.009 92.1334 104.259C92.1204 104.478 92.1636 104.695 92.2588 104.892C92.3425 105.034 92.5375 105.107 92.8413 105.107C93.1347 105.104 93.4226 105.027 93.6774 104.881C93.943 104.728 94.1798 104.53 94.3769 104.296C94.5748 104.058 94.7364 103.792 94.8563 103.507C94.9701 103.243 95.0316 102.959 95.0374 102.671C95.0374 102.25 94.781 102.038 94.271 102.038H94.2682ZM93.2594 102.013C93.6152 101.818 94.0156 101.718 94.4215 101.723C94.5964 101.717 94.7707 101.749 94.9315 101.818C95.0764 101.893 95.2052 101.995 95.3105 102.119C95.3245 102.055 95.3384 101.999 95.3468 101.952C95.3495 101.907 95.3495 101.863 95.3468 101.818C95.3503 101.709 95.3293 101.6 95.2855 101.5C95.2416 101.399 95.1759 101.31 95.0932 101.238C94.9095 101.085 94.6748 101.005 94.4354 101.015C94.1283 101.004 93.8287 101.112 93.5994 101.316C93.4957 101.405 93.4109 101.513 93.3501 101.634C93.2893 101.756 93.2537 101.889 93.2454 102.024L93.2594 102.013Z" fill="#231F20"/>
<path d="M98.8194 103.794C99.0263 103.849 99.2173 103.952 99.3768 104.095C99.5395 104.236 99.6617 104.418 99.7307 104.622C99.7776 104.586 99.8304 104.56 99.8868 104.544C99.9187 104.535 99.9514 104.53 99.9843 104.527C100.003 104.526 100.021 104.531 100.036 104.542C100.051 104.553 100.062 104.568 100.068 104.586C100.082 104.628 100.09 104.672 100.09 104.716C100.084 104.763 100.061 104.805 100.026 104.836C99.9743 104.888 99.91 104.926 99.8394 104.945C99.864 105.084 99.8762 105.225 99.8756 105.366C99.8715 105.748 99.7958 106.126 99.6527 106.481C99.5093 106.858 99.3071 107.209 99.0535 107.523C98.807 107.83 98.5067 108.09 98.1672 108.289C97.836 108.487 97.4575 108.591 97.072 108.59C96.3436 108.59 95.9795 108.262 95.9795 107.607C95.9806 107.337 96.0465 107.073 96.1718 106.835C96.3045 106.575 96.4765 106.339 96.6818 106.132C96.8989 105.914 97.1445 105.727 97.412 105.575C97.6755 105.42 97.9561 105.295 98.2481 105.204L99.0841 104.951C99.0663 104.718 98.9569 104.501 98.7798 104.349C98.6028 104.196 98.3725 104.12 98.1394 104.137C97.9573 104.131 97.7753 104.151 97.5987 104.195C97.5246 104.22 97.4492 104.24 97.373 104.257C97.3562 104.257 97.3423 104.22 97.3367 104.148C97.3312 104.075 97.3367 104.028 97.3228 103.97C97.3089 103.911 97.3562 103.905 97.4203 103.897C97.7185 103.841 98.0113 103.759 98.2954 103.652C98.571 103.549 98.8294 103.405 99.0618 103.225C99.2815 103.055 99.466 102.844 99.6053 102.604C99.751 102.35 99.8242 102.061 99.8171 101.768C99.8171 101.272 99.6248 101.024 99.2402 101.024C98.9936 101.015 98.7501 101.08 98.5407 101.211C98.3487 101.339 98.2031 101.525 98.1254 101.743C98.0858 101.846 98.0363 101.945 97.9777 102.038C97.9558 102.079 97.9236 102.112 97.8845 102.136C97.8454 102.16 97.8006 102.174 97.7548 102.175C97.6819 102.164 97.6134 102.133 97.5569 102.086C97.5156 102.057 97.4824 102.018 97.4605 101.972C97.4385 101.927 97.4285 101.877 97.4315 101.826C97.4371 101.732 97.47 101.641 97.5262 101.564C97.6202 101.423 97.7359 101.297 97.869 101.191C98.0122 101.078 98.1662 100.98 98.3289 100.898C98.4962 100.814 98.6718 100.748 98.8528 100.701C99.0227 100.654 99.1979 100.63 99.374 100.628C100.099 100.628 100.464 100.957 100.464 101.612C100.461 101.82 100.416 102.026 100.333 102.217C100.241 102.434 100.122 102.639 99.9787 102.827C99.8257 103.033 99.6489 103.22 99.452 103.384C99.2593 103.547 99.0467 103.685 98.8194 103.794ZM99.1315 105.293C98.8042 105.357 98.4833 105.45 98.1728 105.572C97.8857 105.677 97.6168 105.827 97.3757 106.015C97.1546 106.186 96.9698 106.399 96.8323 106.642C96.6917 106.898 96.6215 107.187 96.6288 107.478C96.6288 107.974 96.8184 108.222 97.203 108.222C97.5006 108.228 97.7927 108.142 98.039 107.974C98.2829 107.807 98.4905 107.592 98.6494 107.342C98.8201 107.075 98.9498 106.783 99.034 106.478C99.118 106.176 99.1621 105.864 99.165 105.55C99.1635 105.463 99.1523 105.377 99.1315 105.293Z" fill="#231F20"/>
<path d="M104.789 102.991C104.939 103.158 105.018 103.377 105.009 103.602C105.013 103.876 104.931 104.145 104.775 104.371C104.615 104.608 104.409 104.812 104.17 104.97C103.913 105.141 103.631 105.272 103.334 105.357C103.033 105.45 102.721 105.496 102.406 105.497C102.195 105.512 101.984 105.481 101.786 105.406C101.588 105.331 101.409 105.215 101.261 105.065C100.987 104.732 100.848 104.308 100.873 103.877C100.878 103.495 100.955 103.117 101.099 102.763C101.251 102.386 101.462 102.035 101.723 101.723C101.975 101.419 102.276 101.159 102.615 100.957C102.937 100.761 103.306 100.657 103.682 100.656C104.071 100.636 104.459 100.701 104.82 100.848C104.946 100.912 105.051 101.013 105.12 101.137C105.188 101.261 105.218 101.403 105.204 101.545C105.204 101.67 105.18 101.795 105.132 101.911C105.084 102.027 105.014 102.133 104.925 102.222C104.747 102.41 104.527 102.555 104.284 102.646V102.707C104.478 102.747 104.655 102.846 104.789 102.991ZM101.673 104.279C101.7 104.465 101.768 104.643 101.871 104.8C101.946 104.911 102.054 104.995 102.18 105.04C102.316 105.084 102.458 105.104 102.601 105.101C102.813 105.102 103.023 105.067 103.223 104.998C103.415 104.936 103.596 104.842 103.758 104.719C103.91 104.604 104.038 104.46 104.134 104.296C104.233 104.127 104.284 103.934 104.279 103.738C104.295 103.54 104.24 103.342 104.123 103.181C104.056 103.118 103.976 103.07 103.889 103.04C103.802 103.01 103.71 102.999 103.618 103.008C103.425 103.013 103.232 103.039 103.044 103.086C102.813 103.136 102.573 103.186 102.325 103.234L101.606 103.367C101.601 103.67 101.623 103.972 101.673 104.27V104.279ZM103.549 101.038C103.313 101.038 103.081 101.093 102.871 101.199C102.657 101.31 102.463 101.458 102.3 101.637C102.13 101.828 101.989 102.044 101.882 102.278C101.77 102.524 101.693 102.785 101.654 103.053L103.284 102.693C104.075 102.518 104.471 102.159 104.471 101.614C104.479 101.525 104.46 101.434 104.418 101.355C104.375 101.275 104.31 101.21 104.231 101.166C104.019 101.063 103.784 101.015 103.549 101.026V101.038Z" fill="#231F20"/>
<path d="M107.018 100.642C107.147 100.642 107.211 100.698 107.211 100.812C107.206 100.907 107.189 101.001 107.158 101.091C107.122 101.202 107.074 101.325 107.018 101.461L105.954 104.193C105.89 104.345 105.853 104.507 105.845 104.672C105.845 104.85 105.929 104.937 106.096 104.937C106.287 104.935 106.477 104.896 106.653 104.822C106.85 104.744 107.037 104.644 107.211 104.524C107.389 104.402 107.55 104.257 107.69 104.092C107.822 103.94 107.929 103.768 108.008 103.582L108.955 101.174C108.978 101.11 109 101.054 109.019 101.007C109.036 100.964 109.058 100.924 109.086 100.887C109.111 100.856 109.141 100.829 109.176 100.809L109.315 100.726C109.362 100.698 109.411 100.676 109.463 100.659C109.503 100.645 109.545 100.637 109.588 100.634C109.677 100.634 109.722 100.667 109.722 100.731C109.684 100.882 109.636 101.03 109.577 101.174L108.412 104.201L108.286 104.549C108.264 104.599 108.25 104.652 108.245 104.705C108.245 104.803 108.284 104.85 108.365 104.85C108.424 104.848 108.483 104.833 108.537 104.809L108.71 104.725C108.763 104.697 108.813 104.669 108.861 104.639C108.891 104.616 108.926 104.602 108.964 104.597C108.992 104.593 109.02 104.601 109.042 104.618C109.065 104.636 109.079 104.661 109.084 104.689V104.717C109.076 104.764 109.059 104.809 109.032 104.849C109.005 104.888 108.969 104.921 108.927 104.945C108.812 105.032 108.687 105.105 108.554 105.162C108.413 105.225 108.266 105.276 108.116 105.316C108.003 105.351 107.885 105.372 107.765 105.377C107.612 105.377 107.537 105.296 107.537 105.137C107.535 105.044 107.546 104.95 107.567 104.859C107.59 104.764 107.62 104.67 107.657 104.58C107.527 104.709 107.386 104.825 107.236 104.928C107.066 105.039 106.886 105.132 106.698 105.207C106.323 105.384 105.914 105.479 105.5 105.486C105.221 105.486 105.087 105.319 105.079 104.981C105.09 104.735 105.143 104.491 105.235 104.262L106.194 101.709C106.227 101.634 106.252 101.554 106.266 101.473C106.266 101.4 106.235 101.364 106.171 101.364C106.131 101.367 106.092 101.38 106.057 101.4L105.901 101.473C105.848 101.495 105.801 101.52 105.756 101.542C105.73 101.562 105.699 101.574 105.667 101.578C105.652 101.581 105.636 101.58 105.622 101.576C105.607 101.573 105.593 101.566 105.581 101.557C105.569 101.548 105.558 101.537 105.551 101.524C105.543 101.51 105.538 101.496 105.536 101.481C105.533 101.47 105.533 101.458 105.536 101.447C105.536 101.375 105.594 101.294 105.709 101.202C105.839 101.101 105.978 101.013 106.124 100.937C106.281 100.856 106.443 100.784 106.609 100.723C106.739 100.671 106.878 100.644 107.018 100.642Z" fill="#231F20"/>
<path d="M111.812 100.642C111.937 100.642 112.001 100.698 112.001 100.812C111.985 101.044 111.915 101.269 111.798 101.47C111.904 101.364 112.025 101.275 112.158 101.205C112.337 101.1 112.523 101.007 112.715 100.926C112.923 100.844 113.135 100.773 113.35 100.714C113.539 100.664 113.732 100.636 113.927 100.631C114.125 100.631 114.225 100.687 114.225 100.795C114.221 100.905 114.196 101.012 114.153 101.113C114.605 100.814 115.132 100.647 115.675 100.631C115.97 100.631 116.118 100.801 116.118 101.135C116.103 101.384 116.043 101.628 115.939 101.854L114.956 104.363C114.906 104.475 114.866 104.592 114.836 104.711C114.832 104.744 114.841 104.778 114.861 104.804C114.882 104.831 114.911 104.848 114.944 104.853H114.981C115.027 104.85 115.072 104.836 115.112 104.811L115.287 104.728L115.46 104.644C115.497 104.622 115.537 104.608 115.58 104.602C115.644 104.602 115.675 104.641 115.675 104.722C115.675 104.803 115.633 104.845 115.544 104.92C115.447 105.004 115.34 105.076 115.226 105.135C115.097 105.204 114.963 105.263 114.825 105.31C114.702 105.354 114.573 105.378 114.443 105.383C114.259 105.383 114.164 105.293 114.164 105.118C114.195 104.877 114.259 104.642 114.354 104.418L115.254 101.91C115.319 101.762 115.361 101.605 115.379 101.445C115.379 101.275 115.279 101.191 115.078 101.191C114.9 101.195 114.723 101.229 114.557 101.294C114.337 101.38 114.13 101.495 113.941 101.637L112.659 104.856C112.603 104.993 112.524 105.119 112.425 105.229C112.376 105.284 112.316 105.328 112.249 105.357C112.181 105.387 112.108 105.401 112.035 105.399C111.957 105.399 111.915 105.366 111.915 105.302C111.921 105.251 111.932 105.201 111.946 105.151C111.974 105.051 112.007 104.952 112.046 104.856L113.03 102.166C113.214 101.654 113.309 101.383 113.309 101.361C113.309 101.247 113.244 101.191 113.116 101.191C112.816 101.232 112.529 101.343 112.28 101.517C111.863 101.746 111.531 102.104 111.335 102.537L110.424 104.856C110.368 104.993 110.289 105.119 110.19 105.229C110.141 105.284 110.081 105.328 110.014 105.357C109.946 105.387 109.873 105.401 109.8 105.399C109.722 105.399 109.68 105.366 109.68 105.302C109.686 105.251 109.696 105.201 109.711 105.151C109.738 105.052 109.773 104.954 109.814 104.859L110.795 102.175C110.893 101.95 110.969 101.717 111.023 101.478C111.023 101.408 110.99 101.372 110.928 101.372C110.888 101.374 110.848 101.387 110.814 101.408L110.68 101.478L110.555 101.551C110.527 101.571 110.494 101.583 110.46 101.587C110.445 101.589 110.43 101.588 110.415 101.585C110.4 101.581 110.386 101.575 110.374 101.566C110.362 101.556 110.352 101.545 110.344 101.532C110.336 101.519 110.331 101.504 110.329 101.489C110.326 101.478 110.326 101.467 110.329 101.456C110.329 101.4 110.385 101.325 110.497 101.233C110.622 101.128 110.756 101.035 110.898 100.954C111.053 100.866 111.216 100.789 111.383 100.726C111.52 100.673 111.665 100.645 111.812 100.642Z" fill="#231F20"/>
<path d="M118.331 100.642C118.456 100.642 118.52 100.698 118.52 100.812C118.517 100.907 118.499 101.001 118.467 101.091C118.431 101.202 118.386 101.325 118.331 101.461L117.263 104.193C117.2 104.345 117.163 104.507 117.155 104.672C117.155 104.85 117.238 104.937 117.408 104.937C117.6 104.936 117.789 104.897 117.966 104.822C118.162 104.744 118.349 104.644 118.523 104.524C118.701 104.402 118.862 104.257 119.002 104.092C119.135 103.941 119.242 103.768 119.32 103.582L120.268 101.174C120.293 101.11 120.312 101.054 120.334 101.007C120.35 100.965 120.371 100.925 120.396 100.887C120.42 100.855 120.452 100.828 120.488 100.809L120.624 100.726C120.672 100.698 120.722 100.675 120.775 100.659C120.815 100.645 120.857 100.636 120.9 100.634C120.987 100.634 121.031 100.667 121.031 100.731C120.995 100.882 120.947 101.03 120.889 101.174L119.749 104.193L119.624 104.541C119.604 104.591 119.59 104.644 119.582 104.697C119.582 104.792 119.621 104.842 119.702 104.842C119.762 104.84 119.82 104.825 119.875 104.8L120.05 104.717C120.1 104.689 120.151 104.661 120.198 104.63C120.228 104.608 120.264 104.594 120.301 104.588C120.315 104.586 120.329 104.587 120.343 104.591C120.356 104.594 120.369 104.601 120.38 104.609C120.391 104.618 120.401 104.628 120.408 104.641C120.415 104.653 120.419 104.666 120.421 104.68V104.708C120.414 104.756 120.396 104.801 120.369 104.84C120.342 104.88 120.306 104.913 120.265 104.937C120.15 105.023 120.026 105.096 119.894 105.154C119.752 105.216 119.606 105.267 119.457 105.307C119.342 105.343 119.223 105.364 119.103 105.369C118.952 105.369 118.874 105.288 118.874 105.129C118.874 105.035 118.884 104.942 118.905 104.85C118.93 104.756 118.961 104.664 118.994 104.572C118.866 104.7 118.726 104.817 118.576 104.92C118.405 105.03 118.224 105.123 118.035 105.199C117.66 105.376 117.252 105.471 116.837 105.477C116.558 105.477 116.427 105.31 116.419 104.973C116.427 104.726 116.48 104.482 116.575 104.254L117.534 101.701C117.566 101.625 117.59 101.545 117.606 101.464C117.606 101.392 117.573 101.355 117.509 101.355C117.468 101.359 117.429 101.371 117.394 101.392L117.238 101.464L117.096 101.534C117.069 101.552 117.039 101.565 117.007 101.57C116.976 101.574 116.945 101.566 116.92 101.548C116.896 101.53 116.879 101.503 116.873 101.473V101.439C116.873 101.367 116.932 101.286 117.049 101.194C117.178 101.093 117.316 101.004 117.461 100.929C117.618 100.846 117.78 100.775 117.946 100.714C118.069 100.669 118.199 100.644 118.331 100.642Z" fill="#231F20"/>
<path d="M121.912 104.142C121.984 104.782 122.309 105.101 122.885 105.101C123.387 105.109 123.874 104.92 124.239 104.574C124.364 104.446 124.445 104.382 124.476 104.382C124.565 104.382 124.61 104.429 124.61 104.527C124.592 104.631 124.536 104.724 124.454 104.789C124.225 105.023 123.951 105.207 123.648 105.329C123.344 105.451 123.019 105.508 122.692 105.497C122.481 105.512 122.27 105.481 122.072 105.406C121.875 105.332 121.695 105.215 121.547 105.065C121.271 104.733 121.131 104.309 121.157 103.878C121.16 103.478 121.237 103.082 121.385 102.71C121.533 102.331 121.742 101.979 122.004 101.668C122.253 101.367 122.555 101.115 122.896 100.923C123.221 100.74 123.589 100.644 123.963 100.645C124.688 100.645 125.053 100.974 125.053 101.629C125.047 101.958 124.951 102.279 124.774 102.557C124.587 102.865 124.345 103.137 124.061 103.359C123.757 103.601 123.418 103.794 123.055 103.931C122.69 104.071 122.303 104.143 121.912 104.142ZM122.834 103.669C123.124 103.577 123.396 103.435 123.637 103.251C123.864 103.077 124.054 102.859 124.194 102.61C124.337 102.354 124.41 102.066 124.406 101.773C124.406 101.277 124.214 101.029 123.829 101.029C123.539 101.027 123.256 101.112 123.016 101.275C122.771 101.443 122.564 101.659 122.405 101.91C122.233 102.177 122.101 102.468 122.015 102.774C121.926 103.075 121.879 103.388 121.876 103.702V103.811C122.201 103.811 122.525 103.76 122.834 103.66V103.669Z" fill="#231F20"/>
<path d="M34.4744 115.85C34.6719 115.601 34.9208 115.398 35.204 115.253C35.4873 115.109 35.7983 115.028 36.1159 115.014C36.7495 115.014 37.0653 115.406 37.0635 116.19C37.0583 116.435 37.018 116.677 36.9436 116.909C36.8573 117.189 36.7454 117.459 36.6092 117.718C36.4617 117.997 36.2911 118.264 36.0992 118.515C35.9071 118.765 35.6905 118.996 35.4526 119.203C35.225 119.402 34.9685 119.566 34.6918 119.688C34.4287 119.806 34.1439 119.867 33.8557 119.869C33.4711 119.869 33.2259 119.76 33.1116 119.549L32.7521 120.401C32.5426 120.961 32.2432 121.482 31.8658 121.945C31.7613 122.09 31.6272 122.21 31.4724 122.299C31.3177 122.387 31.1459 122.441 30.9684 122.458C30.8068 122.458 30.7288 122.422 30.7288 122.349C30.7288 122.221 30.8124 122.157 30.9796 122.157C31.1802 122.157 31.3837 122.001 31.5899 121.683C31.8538 121.246 32.0634 120.778 32.2142 120.29L33.485 116.55C33.5491 116.349 33.5965 116.193 33.6272 116.076C33.6578 115.959 33.6801 115.884 33.6885 115.842C33.6969 115.8 33.655 115.736 33.591 115.736C33.499 115.747 33.4121 115.784 33.3401 115.842C33.2787 115.895 33.205 115.933 33.1255 115.951C33.095 115.955 33.064 115.947 33.0391 115.929C33.0142 115.911 32.9972 115.883 32.9918 115.853V115.82C32.9918 115.764 33.0503 115.686 33.1673 115.591C33.2935 115.485 33.4298 115.392 33.5742 115.312C33.7311 115.229 33.8931 115.155 34.0592 115.092C34.1881 115.036 34.3258 115.003 34.4661 114.995C34.5942 114.995 34.6583 115.053 34.6583 115.165C34.6534 115.26 34.6356 115.353 34.6054 115.443C34.564 115.574 34.5137 115.702 34.4549 115.825L34.4744 115.85ZM35.7202 115.572C35.3996 115.583 35.0946 115.713 34.8646 115.937C34.5888 116.175 34.3543 116.458 34.1706 116.773C33.9736 117.101 33.8164 117.452 33.7024 117.818C33.5962 118.126 33.5379 118.448 33.5296 118.774C33.5296 119.25 33.7275 119.49 34.1288 119.49C34.3933 119.474 34.6463 119.377 34.8534 119.211C35.13 119.011 35.3727 118.767 35.5725 118.49C35.8038 118.181 35.9913 117.841 36.1299 117.481C36.2713 117.119 36.3449 116.735 36.3472 116.346C36.3472 115.836 36.1438 115.58 35.7341 115.58L35.7202 115.572Z" fill="#231F20"/>
<path d="M38.181 118.523C38.2507 119.161 38.5767 119.482 39.1509 119.482C39.6538 119.49 40.1399 119.301 40.5053 118.955C40.6335 118.827 40.7115 118.763 40.745 118.763C40.8314 118.763 40.876 118.81 40.876 118.908C40.8591 119.012 40.8033 119.105 40.7199 119.17C40.4919 119.404 40.2174 119.588 39.9141 119.71C39.6108 119.832 39.2853 119.889 38.9586 119.877C38.7478 119.892 38.5363 119.861 38.3386 119.787C38.1409 119.712 37.9616 119.596 37.8131 119.445C37.539 119.113 37.4007 118.689 37.4257 118.258C37.4265 117.858 37.5031 117.462 37.6515 117.091C37.7994 116.712 38.0084 116.36 38.2702 116.048C38.5207 115.749 38.8228 115.497 39.162 115.304C39.4879 115.121 39.8556 115.025 40.2294 115.025C40.9559 115.025 41.3191 115.353 41.3191 116.009C41.3146 116.338 41.2181 116.66 41.0404 116.937C40.8534 117.245 40.6127 117.517 40.3297 117.74C40.0253 117.982 39.6849 118.175 39.3209 118.311C38.9572 118.451 38.5707 118.523 38.181 118.523ZM39.1035 118.049C39.3929 117.957 39.6644 117.815 39.9061 117.631C40.1319 117.456 40.3213 117.238 40.4635 116.99C40.605 116.735 40.6771 116.446 40.6725 116.154C40.6725 115.658 40.4802 115.41 40.0984 115.41C39.8077 115.407 39.5229 115.493 39.2818 115.655C39.0384 115.825 38.831 116.041 38.6715 116.291C38.3322 116.827 38.1498 117.448 38.1448 118.083V118.191C38.4703 118.192 38.7938 118.141 39.1035 118.041V118.049Z" fill="#231F20"/>
<path d="M44.4936 115.023C44.6362 115.024 44.7786 115.035 44.92 115.053C45.0572 115.073 45.1931 115.101 45.3269 115.137C45.4369 115.167 45.54 115.218 45.6307 115.287C45.6657 115.312 45.6948 115.344 45.7155 115.381C45.7363 115.418 45.7483 115.459 45.7505 115.502C45.7505 115.767 45.6585 115.898 45.4718 115.898C45.3898 115.899 45.3088 115.879 45.237 115.839C45.1651 115.8 45.1049 115.742 45.0621 115.672C44.9743 115.575 44.864 115.502 44.7411 115.457C44.6182 115.413 44.4864 115.4 44.357 115.418C44.0653 115.414 43.7797 115.502 43.5405 115.669C43.2984 115.84 43.0912 116.056 42.9301 116.305C42.7577 116.569 42.6261 116.859 42.54 117.163C42.4516 117.462 42.4056 117.771 42.4034 118.083C42.4028 118.261 42.4205 118.44 42.4564 118.615C42.4867 118.774 42.5452 118.926 42.6291 119.064C42.7099 119.197 42.8249 119.306 42.9621 119.379C43.0994 119.453 43.2539 119.488 43.4095 119.482C43.5236 119.48 43.6365 119.459 43.7439 119.42C43.8666 119.381 43.9851 119.329 44.0979 119.267C44.2126 119.204 44.3193 119.127 44.4156 119.039C44.5041 118.959 44.5778 118.865 44.633 118.76C44.7528 118.537 44.8587 118.425 44.9562 118.425C45.0538 118.425 45.051 118.476 45.051 118.581C45.0453 118.729 44.9979 118.872 44.9144 118.994C44.8111 119.153 44.681 119.294 44.5298 119.409C44.3523 119.546 44.1562 119.657 43.9474 119.738C43.7152 119.831 43.4672 119.877 43.2172 119.875C43.0091 119.875 42.8031 119.833 42.6124 119.749C42.4287 119.666 42.2631 119.548 42.1247 119.401C41.9872 119.251 41.8794 119.076 41.807 118.885C41.7312 118.684 41.6934 118.47 41.6955 118.255C41.6963 117.84 41.7786 117.429 41.938 117.046C42.0913 116.668 42.306 116.317 42.5734 116.009C42.825 115.717 43.1283 115.473 43.468 115.29C43.7826 115.118 44.1349 115.026 44.4936 115.023Z" fill="#231F20"/>
<path d="M47.8127 115.023C47.9409 115.023 48.005 115.081 48.005 115.193C47.9882 115.425 47.9187 115.65 47.8016 115.85C47.9066 115.744 48.028 115.656 48.1611 115.588C48.3397 115.482 48.526 115.389 48.7185 115.31C48.9254 115.226 49.1377 115.156 49.3539 115.101C49.541 115.048 49.7338 115.019 49.928 115.014C50.1287 115.014 50.229 115.07 50.229 115.179C50.2232 115.288 50.1987 115.395 50.1565 115.496C50.6086 115.196 51.1359 115.029 51.6782 115.014C51.9736 115.014 52.1213 115.184 52.1213 115.519C52.106 115.768 52.0446 116.011 51.9402 116.238L50.9592 118.746C50.9069 118.857 50.8667 118.974 50.8393 119.094C50.837 119.111 50.838 119.128 50.8422 119.144C50.8464 119.16 50.8538 119.175 50.8639 119.188C50.874 119.201 50.8867 119.213 50.9011 119.221C50.9156 119.229 50.9315 119.234 50.948 119.236C50.959 119.239 50.9705 119.239 50.9815 119.236C51.0289 119.234 51.075 119.22 51.1153 119.195L51.288 119.111L51.4608 119.027C51.4976 119.006 51.5384 118.992 51.5807 118.986C51.6448 118.986 51.6782 119.025 51.6782 119.105C51.6782 119.186 51.6336 119.228 51.5472 119.303C51.4492 119.386 51.3427 119.458 51.2295 119.518C51.1013 119.588 50.967 119.647 50.8282 119.694C50.7044 119.737 50.5747 119.761 50.4436 119.766C50.2597 119.766 50.1649 119.677 50.1649 119.501C50.1981 119.262 50.2627 119.027 50.3572 118.805L51.2546 116.296C51.3205 116.144 51.361 115.982 51.3744 115.817C51.3744 115.65 51.2741 115.563 51.0762 115.563C50.8979 115.568 50.7217 115.603 50.5551 115.666C50.3344 115.752 50.1263 115.868 49.9364 116.009L48.6544 119.231C48.5992 119.367 48.5199 119.493 48.4203 119.602C48.372 119.656 48.3123 119.7 48.2454 119.729C48.1785 119.759 48.1059 119.773 48.0329 119.772C47.9521 119.772 47.913 119.738 47.913 119.674C47.9169 119.623 47.9263 119.573 47.9409 119.524C47.9694 119.424 48.0039 119.326 48.044 119.231L49.0501 116.55C49.2313 116.037 49.3288 115.767 49.3288 115.744C49.3288 115.63 49.2675 115.574 49.1393 115.574C48.8385 115.615 48.5518 115.726 48.3032 115.901C47.8852 116.129 47.5527 116.487 47.3557 116.921L46.4443 119.242C46.3891 119.378 46.3109 119.503 46.213 119.613C46.1641 119.667 46.1038 119.711 46.0365 119.74C45.9692 119.77 45.8963 119.784 45.8228 119.783C45.742 119.783 45.703 119.749 45.703 119.685C45.7076 119.635 45.7179 119.585 45.7337 119.537C45.7612 119.437 45.7947 119.338 45.834 119.242L46.8178 116.558C46.9151 116.335 46.9907 116.102 47.0435 115.864C47.0435 115.792 47.0129 115.756 46.9488 115.756C46.9083 115.758 46.8691 115.771 46.8345 115.792L46.7035 115.864L46.5781 115.934C46.5494 115.955 46.5157 115.967 46.4806 115.97C46.4503 115.974 46.4197 115.966 46.3952 115.948C46.3708 115.93 46.3544 115.903 46.3496 115.873C46.3467 115.862 46.3467 115.85 46.3496 115.839C46.3496 115.783 46.4053 115.708 46.5168 115.616C46.6426 115.512 46.7769 115.419 46.9181 115.338C47.0737 115.249 47.2358 115.173 47.403 115.109C47.534 115.058 47.6724 115.029 47.8127 115.023Z" fill="#231F20"/>
<path d="M55.4099 115.023C55.6338 115.02 55.8558 115.064 56.0621 115.151C56.2526 115.229 56.4231 115.349 56.5609 115.502C56.6981 115.658 56.8058 115.837 56.8786 116.031C56.9554 116.238 56.9942 116.457 56.9929 116.678C56.9908 117.065 56.9171 117.449 56.7755 117.81C56.6361 118.181 56.4365 118.528 56.1847 118.835C55.9314 119.139 55.6244 119.393 55.2789 119.585C54.9303 119.778 54.5378 119.879 54.1391 119.877C53.9235 119.881 53.7098 119.838 53.512 119.752C53.3291 119.672 53.1656 119.553 53.0327 119.404C52.7544 119.087 52.6026 118.679 52.6063 118.258C52.6063 117.841 52.6897 117.428 52.8515 117.043C53.0079 116.667 53.2244 116.319 53.4925 116.012C53.7468 115.72 54.0518 115.476 54.3927 115.293C54.7044 115.12 55.0538 115.028 55.4099 115.023ZM55.2817 115.418C54.9944 115.416 54.7129 115.499 54.4735 115.658C54.228 115.822 54.0169 116.032 53.852 116.277C53.6754 116.533 53.5399 116.815 53.4507 117.113C53.3608 117.419 53.3148 117.736 53.3142 118.055C53.3122 118.235 53.3299 118.416 53.3671 118.593C53.4004 118.752 53.4617 118.904 53.5483 119.041C53.6276 119.168 53.7354 119.275 53.8632 119.353C54.0047 119.434 54.1658 119.474 54.3286 119.468C54.6265 119.473 54.9187 119.385 55.1647 119.217C55.4089 119.046 55.6165 118.828 55.775 118.576C55.9447 118.307 56.0725 118.014 56.154 117.706C56.2429 117.403 56.2907 117.089 56.2962 116.773C56.2966 116.606 56.2789 116.44 56.2432 116.277C56.21 116.122 56.1506 115.974 56.0676 115.839C55.9876 115.713 55.88 115.606 55.7527 115.527C55.6132 115.446 55.4542 115.405 55.2929 115.407L55.2817 115.418Z" fill="#231F20"/>
<path d="M59.3284 115.85C59.5259 115.601 59.7748 115.398 60.058 115.253C60.3413 115.109 60.6523 115.028 60.9699 115.014C61.6016 115.014 61.9175 115.406 61.9175 116.19C61.9123 116.435 61.872 116.677 61.7976 116.909C61.7113 117.189 61.5994 117.459 61.4632 117.718C61.3156 117.997 61.1451 118.264 60.9532 118.515C60.7611 118.765 60.5445 118.996 60.3066 119.203C60.079 119.402 59.8225 119.566 59.5458 119.688C59.2827 119.806 58.9979 119.867 58.7097 119.869C58.3251 119.869 58.0771 119.76 57.9656 119.549L57.6061 120.401C57.3966 120.961 57.0972 121.482 56.7198 121.945C56.6153 122.09 56.4812 122.21 56.3264 122.299C56.1717 122.387 55.9999 122.441 55.8224 122.458C55.6608 122.458 55.5828 122.422 55.5828 122.349C55.5828 122.221 55.6664 122.157 55.8336 122.157C56.0342 122.157 56.2377 122.001 56.4439 121.683C56.7066 121.245 56.9162 120.778 57.0682 120.29L58.339 116.55C58.4031 116.349 58.4505 116.193 58.4812 116.076C58.5118 115.959 58.5341 115.884 58.5425 115.842C58.5509 115.8 58.5091 115.736 58.445 115.736C58.353 115.747 58.2661 115.784 58.1941 115.842C58.1327 115.895 58.059 115.933 57.9795 115.951C57.949 115.955 57.918 115.947 57.8931 115.929C57.8682 115.911 57.8512 115.883 57.8458 115.853V115.82C57.8458 115.764 57.9043 115.686 58.0213 115.591C58.1475 115.485 58.2838 115.392 58.4282 115.312C58.5851 115.229 58.747 115.155 58.9132 115.092C59.0421 115.036 59.1798 115.003 59.32 114.995C59.4482 114.995 59.5123 115.053 59.5123 115.165C59.5074 115.26 59.4896 115.353 59.4594 115.443C59.418 115.574 59.3677 115.702 59.3089 115.825L59.3284 115.85ZM60.5742 115.572C60.2558 115.578 59.9512 115.703 59.7186 115.92C59.4428 116.159 59.2083 116.441 59.0246 116.756C58.8275 117.085 58.6704 117.435 58.5564 117.801C58.4507 118.109 58.3915 118.432 58.3808 118.757C58.3808 119.234 58.5815 119.473 58.98 119.473C59.2455 119.458 59.4996 119.36 59.7074 119.195C59.984 118.994 60.2267 118.75 60.4265 118.473C60.6578 118.164 60.8453 117.824 60.9839 117.464C61.1252 117.102 61.1989 116.718 61.2012 116.33C61.2012 115.82 60.9978 115.563 60.5881 115.563L60.5742 115.572Z" fill="#231F20"/>
<path d="M65.1781 119.206C64.957 119.427 64.6928 119.601 64.4019 119.717C64.1109 119.832 63.7994 119.887 63.4865 119.877C62.6002 119.877 62.1571 119.512 62.1571 118.788C62.16 118.592 62.1988 118.398 62.2714 118.216C62.3497 118.01 62.4477 117.811 62.564 117.623C62.6837 117.433 62.8249 117.259 62.9848 117.102C63.1281 116.959 63.2938 116.84 63.4753 116.751C63.4521 116.659 63.4399 116.566 63.4391 116.472C63.4385 116.276 63.4905 116.083 63.5896 115.914C63.6928 115.735 63.8312 115.577 63.9965 115.452C64.3742 115.166 64.8354 115.012 65.3091 115.014C66.2381 115.014 66.7026 115.47 66.7026 116.383C66.6864 116.589 66.6374 116.791 66.5577 116.982L65.8888 118.813C65.8513 118.904 65.8187 118.997 65.7913 119.092C65.7889 119.108 65.7899 119.125 65.7941 119.141C65.7983 119.157 65.8057 119.172 65.8158 119.185C65.8259 119.199 65.8386 119.21 65.853 119.218C65.8675 119.226 65.8834 119.232 65.9 119.234C65.9119 119.236 65.9243 119.236 65.9362 119.234C65.9804 119.228 66.023 119.214 66.0616 119.192L66.2483 119.108C66.3124 119.08 66.3682 119.053 66.4211 119.025C66.4557 119.002 66.4947 118.988 66.5354 118.983C66.5995 118.983 66.6301 119.022 66.6301 119.103C66.6241 119.149 66.6073 119.193 66.5812 119.232C66.5551 119.271 66.5203 119.303 66.4796 119.326C66.369 119.407 66.2516 119.479 66.1285 119.54C65.9951 119.606 65.8562 119.66 65.7132 119.702C65.6104 119.735 65.5035 119.755 65.3955 119.76C65.2116 119.76 65.1168 119.674 65.1168 119.498C65.1249 119.399 65.1455 119.3 65.1781 119.206ZM65.0444 116.419C64.7583 116.418 64.4774 116.494 64.2306 116.639C63.9751 116.785 63.7461 116.974 63.5534 117.196C63.3613 117.412 63.2034 117.655 63.0852 117.918C62.9766 118.144 62.9177 118.39 62.9124 118.64C62.8993 118.858 62.9425 119.076 63.0378 119.273C63.1214 119.415 63.3165 119.487 63.6202 119.487C63.9138 119.486 64.2019 119.408 64.4563 119.262C64.7228 119.109 64.9605 118.911 65.1586 118.676C65.3546 118.438 65.5142 118.172 65.6324 117.888C65.7468 117.624 65.8075 117.339 65.8108 117.052C65.8108 116.631 65.5572 116.419 65.0444 116.419ZM64.0383 116.397C64.3926 116.196 64.7934 116.092 65.2004 116.096C65.3691 116.085 65.5378 116.116 65.6921 116.185C65.8465 116.254 65.9818 116.359 66.0867 116.491C66.1034 116.427 66.1146 116.372 66.1229 116.324C66.1301 116.281 66.1348 116.237 66.1369 116.193C66.1402 116.083 66.1192 115.974 66.0753 115.874C66.0315 115.773 65.9659 115.683 65.8832 115.611C65.6979 115.451 65.4587 115.368 65.2144 115.379C64.9075 115.369 64.6083 115.477 64.3783 115.68C64.2768 115.77 64.1945 115.879 64.1361 116.001C64.0776 116.123 64.0444 116.256 64.0383 116.391V116.397Z" fill="#231F20"/>
<path d="M69.456 115.023C69.5815 115.023 69.6456 115.081 69.6456 115.193C69.6439 115.288 69.626 115.382 69.5926 115.471C69.5564 115.574 69.5062 115.7 69.4421 115.842L68.8847 117.235C68.9714 117.171 69.0648 117.117 69.1634 117.074C69.29 117.027 69.4242 117.004 69.5592 117.007H70.1946C70.3436 117.01 70.4919 116.985 70.6321 116.934C70.687 116.92 70.7383 116.895 70.7829 116.86C70.8275 116.825 70.8644 116.781 70.8913 116.731L71.3345 115.558C71.3674 115.462 71.4075 115.369 71.4543 115.279C71.4823 115.237 71.5182 115.201 71.5602 115.173C71.6227 115.129 71.6889 115.091 71.7581 115.059C71.8238 115.025 71.8961 115.006 71.9699 115.003C71.9977 115.001 72.0255 115.009 72.0477 115.026C72.0699 115.043 72.0849 115.067 72.0897 115.095V115.123C72.0515 115.275 72.0031 115.424 71.9448 115.569L70.8077 118.587C70.7576 118.707 70.7185 118.816 70.6879 118.91C70.6644 118.969 70.6476 119.029 70.6377 119.091C70.6377 119.186 70.6795 119.234 70.7576 119.234C70.8141 119.234 70.8699 119.22 70.9192 119.192L71.1003 119.108C71.1589 119.08 71.2146 119.052 71.262 119.025C71.2907 119.005 71.3228 118.991 71.3567 118.983C71.3845 118.979 71.4126 118.986 71.4351 119.003C71.4575 119.019 71.4724 119.044 71.4766 119.072C71.4794 119.082 71.4794 119.093 71.4766 119.103C71.4766 119.175 71.4236 119.25 71.3149 119.331C71.1986 119.418 71.0723 119.49 70.9387 119.546C70.7976 119.61 70.6512 119.662 70.5012 119.702C70.3898 119.736 70.2747 119.757 70.1584 119.763C70.0079 119.763 69.9326 119.682 69.9326 119.523C69.9307 119.424 69.94 119.325 69.9605 119.228C69.9834 119.133 70.0142 119.04 70.0525 118.949L70.6879 117.258C70.459 117.405 70.191 117.481 69.9187 117.475H69.3947C69.2222 117.468 69.0507 117.505 68.8959 117.581C68.792 117.629 68.7061 117.709 68.6506 117.809L68.0932 119.203C68.0347 119.34 67.9558 119.468 67.8591 119.582C67.8125 119.635 67.7545 119.678 67.6894 119.706C67.6243 119.734 67.5537 119.747 67.4829 119.744C67.4526 119.746 67.4222 119.738 67.3976 119.72C67.373 119.702 67.3558 119.676 67.3491 119.646C67.3797 119.494 67.4245 119.346 67.4829 119.203L68.4639 116.519C68.5621 116.296 68.6386 116.063 68.6924 115.825C68.6924 115.753 68.6618 115.716 68.5977 115.716C68.5591 115.72 68.5219 115.732 68.489 115.753L68.3441 115.825C68.2967 115.847 68.2521 115.873 68.2131 115.895C68.1886 115.914 68.1599 115.926 68.1295 115.931C68.1144 115.934 68.0989 115.933 68.084 115.93C68.0691 115.927 68.055 115.92 68.0427 115.911C68.0304 115.902 68.0201 115.89 68.0125 115.877C68.0049 115.863 68.0001 115.849 67.9985 115.834C67.9956 115.823 67.9956 115.811 67.9985 115.8C67.9985 115.744 68.0514 115.669 68.1601 115.577C68.2823 115.471 68.4149 115.378 68.5559 115.298C68.7114 115.21 68.8735 115.134 69.0408 115.07C69.1756 115.031 69.316 115.015 69.456 115.023Z" fill="#231F20"/>
<path d="M74.4281 115.023C74.5563 115.023 74.6204 115.081 74.6204 115.193C74.6173 115.288 74.5995 115.382 74.5675 115.471C74.5312 115.574 74.4811 115.7 74.417 115.842L73.8596 117.235C73.9459 117.171 74.0394 117.117 74.1383 117.074C74.2647 117.026 74.399 117.004 74.534 117.007H75.1694C75.3185 117.009 75.4667 116.985 75.607 116.934C75.6613 116.92 75.712 116.894 75.7561 116.859C75.8002 116.824 75.8367 116.781 75.8634 116.731L76.3065 115.558C76.3428 115.469 76.3818 115.379 76.4264 115.279C76.4547 115.236 76.4917 115.2 76.5351 115.173C76.5968 115.128 76.6631 115.09 76.7329 115.059C76.7977 115.025 76.869 115.006 76.9419 115.003C76.9699 115 76.9981 115.008 77.0205 115.025C77.0428 115.042 77.0576 115.067 77.0618 115.095C77.0646 115.104 77.0646 115.114 77.0618 115.123C77.0258 115.275 76.9783 115.424 76.9197 115.569L75.7798 118.587C75.7324 118.707 75.6906 118.816 75.66 118.91C75.6374 118.969 75.6215 119.03 75.6126 119.092C75.6126 119.186 75.6516 119.234 75.7324 119.234C75.789 119.234 75.8446 119.219 75.8941 119.192L76.0724 119.108C76.1277 119.083 76.1817 119.055 76.2341 119.025C76.2639 119.005 76.2969 118.991 76.3316 118.983C76.3593 118.979 76.3875 118.986 76.4099 119.003C76.4324 119.019 76.4473 119.044 76.4514 119.072V119.103C76.4514 119.175 76.3957 119.25 76.2898 119.331C76.1725 119.418 76.0453 119.49 75.9108 119.546C75.7698 119.611 75.6234 119.663 75.4732 119.702C75.3629 119.736 75.2487 119.757 75.1332 119.763C74.9799 119.763 74.9047 119.682 74.9047 119.524C74.9037 119.424 74.914 119.325 74.9353 119.228C74.9573 119.133 74.9872 119.04 75.0245 118.949L75.66 117.258C75.4319 117.405 75.165 117.481 74.8935 117.475H74.3557C74.1797 117.476 74.0069 117.522 73.854 117.609C73.7491 117.656 73.6628 117.736 73.6088 117.837L73.0514 119.231C72.9908 119.367 72.912 119.495 72.8173 119.61C72.7702 119.664 72.7117 119.706 72.6461 119.734C72.5805 119.762 72.5095 119.775 72.4382 119.772C72.4082 119.774 72.3783 119.766 72.3541 119.748C72.33 119.73 72.3133 119.704 72.3073 119.674C72.3356 119.522 72.3795 119.374 72.4382 119.231L73.422 116.547C73.519 116.323 73.5955 116.091 73.6506 115.853C73.6506 115.781 73.6171 115.744 73.553 115.744C73.5154 115.748 73.4791 115.76 73.4471 115.781L73.3022 115.853C73.2548 115.875 73.2102 115.901 73.1712 115.923C73.1465 115.941 73.1179 115.954 73.0876 115.959C73.0724 115.961 73.0569 115.961 73.042 115.957C73.027 115.954 73.0129 115.947 73.0005 115.938C72.9881 115.929 72.9776 115.918 72.9696 115.904C72.9615 115.891 72.9562 115.877 72.9538 115.862V115.828C72.9538 115.772 73.0096 115.697 73.1155 115.605C73.2382 115.5 73.3707 115.406 73.5112 115.326C73.6668 115.238 73.8289 115.162 73.9961 115.098C74.1347 115.048 74.2809 115.023 74.4281 115.023Z" fill="#231F20"/>
<path d="M80.2277 115.023C80.4524 115.02 80.6753 115.064 80.8826 115.151C81.0718 115.23 81.2412 115.35 81.3787 115.502C81.5159 115.658 81.6236 115.837 81.6964 116.031C81.7746 116.238 81.8133 116.457 81.8107 116.678C81.8086 117.065 81.7349 117.449 81.5933 117.809C81.4539 118.181 81.2543 118.528 81.0025 118.835C80.7492 119.139 80.4421 119.393 80.0967 119.585C79.748 119.778 79.3556 119.879 78.9568 119.877C78.7413 119.881 78.5275 119.838 78.3298 119.752C78.1468 119.672 77.9834 119.553 77.8504 119.404C77.716 119.252 77.6102 119.077 77.5383 118.888C77.4613 118.687 77.4225 118.473 77.424 118.258C77.4241 117.841 77.5074 117.428 77.6692 117.043C77.8257 116.667 78.0422 116.319 78.3102 116.012C78.5645 115.72 78.8695 115.476 79.2104 115.293C79.5221 115.12 79.8715 115.028 80.2277 115.023ZM80.0995 115.418C79.8122 115.416 79.5307 115.499 79.2913 115.658C79.0457 115.822 78.8346 116.032 78.6698 116.277C78.4929 116.532 78.3583 116.814 78.2712 117.113C78.179 117.418 78.1321 117.736 78.1319 118.055C78.1299 118.235 78.1476 118.416 78.1848 118.593C78.2181 118.752 78.2794 118.904 78.366 119.041C78.4453 119.168 78.5531 119.275 78.6809 119.353C78.8225 119.434 78.9836 119.473 79.1463 119.468C79.4443 119.473 79.7364 119.385 79.9824 119.217C80.226 119.045 80.4334 118.828 80.5928 118.576C80.7625 118.307 80.8903 118.014 80.9718 117.706C81.056 117.402 81.0991 117.088 81.1 116.773C81.1009 116.606 81.0822 116.439 81.0443 116.277C81.0134 116.122 80.9548 115.973 80.8715 115.839C80.7915 115.713 80.6838 115.606 80.5565 115.527C80.417 115.446 80.258 115.404 80.0967 115.407L80.0995 115.418Z" fill="#231F20"/>
<path d="M85.2023 118.476C85.2803 118.476 85.3221 118.52 85.3221 118.607C85.3198 118.727 85.2912 118.846 85.2385 118.955C85.1632 119.1 85.0611 119.23 84.9375 119.337C84.7341 119.519 84.4963 119.658 84.238 119.746C83.9681 119.835 83.6859 119.879 83.4019 119.877C83.1424 119.889 82.8882 119.802 82.6913 119.632C82.5965 119.542 82.5225 119.433 82.4744 119.312C82.4263 119.19 82.4052 119.06 82.4126 118.93C82.4098 118.742 82.4488 118.557 82.5268 118.386C82.5989 118.222 82.6926 118.069 82.8055 117.929C82.9222 117.789 83.0529 117.661 83.1957 117.548C83.3378 117.43 83.4744 117.322 83.6249 117.216C83.7754 117.11 83.9482 116.982 84.1126 116.87C84.277 116.759 84.422 116.647 84.5557 116.539C84.6743 116.442 84.7826 116.334 84.879 116.215C84.9571 116.123 85.0013 116.007 85.0044 115.887C85.0146 115.817 85.0072 115.746 84.9828 115.681C84.9585 115.615 84.918 115.556 84.8651 115.51C84.7511 115.444 84.6205 115.412 84.4888 115.418C84.2885 115.417 84.0901 115.458 83.9064 115.538C83.723 115.622 83.5522 115.73 83.3992 115.861C83.3429 115.905 83.2889 115.952 83.2375 116.001C83.224 116.014 83.2079 116.025 83.1902 116.032C83.1725 116.039 83.1535 116.043 83.1344 116.043C83.0619 116.043 83.0257 116.004 83.0257 115.923C83.0257 115.722 83.2013 115.527 83.5552 115.335C83.6416 115.287 83.728 115.243 83.8116 115.204C83.9004 115.161 83.994 115.129 84.0903 115.109C84.2089 115.082 84.3289 115.061 84.4498 115.048C84.6128 115.031 84.7765 115.023 84.9403 115.023C85.0096 115.028 85.078 115.042 85.1438 115.064C85.2401 115.096 85.3298 115.145 85.4085 115.209C85.5011 115.282 85.5788 115.372 85.6371 115.474C85.7041 115.592 85.7369 115.726 85.7318 115.861C85.7318 116.03 85.6771 116.195 85.5758 116.33C85.4608 116.485 85.328 116.626 85.18 116.75C85.0122 116.892 84.8343 117.022 84.6477 117.138C84.4526 117.263 84.2575 117.389 84.0652 117.517C83.8927 117.635 83.7271 117.762 83.5692 117.899C83.4618 117.993 83.3681 118.102 83.2905 118.222C83.2299 118.315 83.1873 118.419 83.1651 118.529C83.1438 118.633 83.1335 118.74 83.1344 118.846C83.1344 119.125 83.1846 119.303 83.2849 119.373C83.3999 119.45 83.5367 119.488 83.6751 119.482C83.8984 119.478 84.1178 119.423 84.3161 119.32C84.5532 119.197 84.7534 119.014 84.8957 118.788C85.0379 118.579 85.1382 118.476 85.2023 118.476Z" fill="#231F20"/>
<path d="M89.1431 115.023C89.3678 115.02 89.5907 115.064 89.798 115.151C89.9872 115.23 90.1566 115.35 90.2941 115.502C90.4313 115.658 90.5389 115.837 90.6118 116.031C90.6899 116.238 90.7287 116.457 90.726 116.678C90.724 117.065 90.6503 117.449 90.5087 117.809C90.3705 118.182 90.1708 118.529 89.9178 118.835C89.6645 119.139 89.3575 119.393 89.0121 119.585C88.6643 119.778 88.2728 119.879 87.875 119.877C87.6585 119.881 87.4438 119.838 87.2452 119.752C87.0622 119.672 86.8988 119.553 86.7658 119.404C86.6314 119.252 86.5256 119.077 86.4537 118.888C86.3767 118.687 86.3379 118.473 86.3394 118.258C86.3395 117.841 86.4228 117.428 86.5846 117.043C86.7411 116.667 86.9576 116.319 87.2256 116.012C87.4799 115.72 87.7849 115.476 88.1258 115.293C88.4375 115.12 88.7869 115.028 89.1431 115.023ZM89.0149 115.418C88.7276 115.416 88.4461 115.499 88.2066 115.658C87.9611 115.822 87.75 116.032 87.5852 116.277C87.4083 116.532 87.2737 116.814 87.1866 117.113C87.0944 117.418 87.0475 117.736 87.0473 118.055C87.0453 118.235 87.063 118.416 87.1002 118.593C87.1335 118.752 87.1948 118.904 87.2814 119.041C87.3607 119.168 87.4685 119.275 87.5963 119.353C87.7379 119.434 87.899 119.473 88.0617 119.468C88.3598 119.473 88.6521 119.386 88.8978 119.217C89.1421 119.046 89.3496 118.828 89.5082 118.576C89.6779 118.307 89.8057 118.014 89.8872 117.706C89.9737 117.403 90.0177 117.088 90.0182 116.773C90.0186 116.606 90.0009 116.44 89.9652 116.277C89.932 116.122 89.8726 115.974 89.7896 115.839C89.7096 115.713 89.6019 115.606 89.4747 115.527C89.3352 115.446 89.1762 115.404 89.0149 115.407V115.418Z" fill="#231F20"/>
<path d="M96.9326 115.023C97.0804 115.019 97.2275 115.044 97.3653 115.098C97.5031 115.152 97.6288 115.232 97.7352 115.335C97.8545 115.472 97.9446 115.632 98.0002 115.805C98.0558 115.977 98.0756 116.16 98.0585 116.341C98.0612 116.706 98.0028 117.068 97.8857 117.414C97.7323 117.832 97.5202 118.226 97.2559 118.584C97.1145 118.794 96.956 118.992 96.7821 119.175C96.6423 119.328 96.4841 119.463 96.3111 119.576C96.1578 119.678 95.9895 119.755 95.8122 119.805C95.6306 119.854 95.4431 119.879 95.2548 119.877C95.0767 119.877 94.9007 119.838 94.7393 119.763C94.5785 119.686 94.4346 119.578 94.3156 119.445C94.1876 119.304 94.0874 119.139 94.0202 118.961C93.9475 118.759 93.9116 118.545 93.9143 118.331C93.9167 118.037 93.9428 117.745 93.9924 117.456C94.0462 117.114 94.1197 116.777 94.2125 116.444C94.3127 116.085 94.4327 115.733 94.572 115.388C94.7126 115.041 94.8813 114.706 95.0765 114.387C95.349 113.915 95.6942 113.489 96.0993 113.125C96.4072 112.824 96.8147 112.646 97.2447 112.626C97.3483 112.626 97.4515 112.64 97.5513 112.668L97.8606 112.76C97.9693 112.79 98.0864 112.821 98.209 112.849C98.341 112.877 98.4755 112.891 98.6103 112.891C98.7234 112.898 98.8366 112.877 98.9392 112.829C98.9995 112.797 99.0526 112.752 99.0953 112.698C99.1284 112.656 99.1591 112.613 99.1872 112.567C99.2009 112.546 99.2205 112.528 99.2437 112.517C99.2669 112.507 99.2928 112.503 99.3182 112.506C99.343 112.507 99.3675 112.511 99.3907 112.52C99.4024 112.524 99.4123 112.532 99.4189 112.543C99.4255 112.553 99.4283 112.566 99.4269 112.578C99.4322 112.718 99.3963 112.855 99.3238 112.974C99.2585 113.075 99.1707 113.159 99.0674 113.219C98.8772 113.329 98.6625 113.388 98.4431 113.392C98.3044 113.395 98.1659 113.381 98.0306 113.35C97.8969 113.323 97.7715 113.292 97.6516 113.256C97.5318 113.219 97.4175 113.189 97.306 113.161C97.2043 113.133 97.0993 113.119 96.9939 113.119C96.8222 113.114 96.6516 113.149 96.495 113.219C96.3065 113.333 96.1448 113.486 96.0213 113.668C95.9262 113.806 95.8406 113.951 95.7649 114.1C95.6812 114.269 95.6095 114.443 95.5503 114.621C95.4743 114.838 95.4101 115.058 95.358 115.282C95.2966 115.524 95.2326 115.803 95.1601 116.118C95.3714 115.809 95.6367 115.541 95.9432 115.326C96.2341 115.126 96.5795 115.02 96.9326 115.023ZM94.6445 118.258C94.6467 118.387 94.6588 118.516 94.6807 118.643C94.7032 118.783 94.7474 118.918 94.8117 119.044C94.8736 119.164 94.9589 119.27 95.0625 119.356C95.181 119.443 95.3254 119.487 95.4722 119.482C95.7195 119.467 95.957 119.38 96.155 119.231C96.4556 119.005 96.7077 118.72 96.8964 118.395C96.9934 118.236 97.0719 118.067 97.1305 117.89C97.1891 117.717 97.2338 117.539 97.2642 117.358C97.2893 117.18 97.3088 117.001 97.3172 116.823C97.3255 116.645 97.3172 116.486 97.3172 116.332C97.339 116.088 97.276 115.843 97.1388 115.638C97.0843 115.57 97.0148 115.514 96.9355 115.477C96.8563 115.439 96.7695 115.42 96.6818 115.421C96.4447 115.435 96.2165 115.516 96.024 115.655C95.7692 115.825 95.5442 116.036 95.358 116.279C95.1452 116.555 94.9717 116.859 94.8424 117.182C94.708 117.525 94.6408 117.89 94.6445 118.258Z" fill="#231F20"/>
<path d="M100.433 115.023C100.561 115.023 100.625 115.081 100.625 115.193C100.62 115.288 100.601 115.382 100.57 115.471C100.533 115.583 100.489 115.705 100.433 115.842L99.3656 118.576C99.3013 118.728 99.2644 118.89 99.2569 119.055C99.2569 119.231 99.3405 119.317 99.5105 119.317C99.6973 119.314 99.8818 119.276 100.054 119.203C100.25 119.125 100.437 119.025 100.611 118.905C100.79 118.783 100.951 118.637 101.091 118.473C101.224 118.322 101.331 118.149 101.408 117.963L102.356 115.555L102.423 115.388C102.44 115.346 102.461 115.305 102.487 115.268C102.512 115.235 102.543 115.209 102.579 115.19L102.716 115.106C102.763 115.078 102.813 115.056 102.866 115.039C102.906 115.025 102.949 115.017 102.991 115.014C103.081 115.014 103.122 115.048 103.122 115.112C103.086 115.263 103.039 115.411 102.98 115.555L101.84 118.576C101.785 118.726 101.743 118.855 101.715 118.922C101.696 118.972 101.682 119.024 101.673 119.078C101.673 119.175 101.712 119.223 101.793 119.223C101.853 119.22 101.912 119.206 101.966 119.181L102.141 119.097L102.292 119.014C102.32 118.989 102.355 118.974 102.392 118.972C102.42 118.968 102.448 118.975 102.471 118.992C102.493 119.008 102.508 119.033 102.512 119.061C102.515 119.071 102.515 119.082 102.512 119.092C102.505 119.139 102.487 119.183 102.46 119.223C102.433 119.262 102.397 119.294 102.356 119.317C102.241 119.404 102.117 119.476 101.985 119.535C101.843 119.597 101.697 119.649 101.548 119.691C101.433 119.724 101.314 119.744 101.194 119.749C101.043 119.749 100.965 119.668 100.965 119.51C100.965 119.416 100.975 119.322 100.996 119.231C101.021 119.136 101.052 119.044 101.085 118.952C100.957 119.081 100.817 119.198 100.667 119.301C100.496 119.41 100.315 119.504 100.126 119.579C99.7517 119.757 99.3429 119.852 98.9281 119.858C98.6494 119.858 98.5184 119.691 98.51 119.354C98.5189 119.107 98.5718 118.863 98.6661 118.635L99.6248 116.084C99.6582 116.008 99.6825 115.927 99.6973 115.845C99.6973 115.772 99.6638 115.736 99.5997 115.736C99.5598 115.741 99.5211 115.754 99.4854 115.772L99.3322 115.845C99.2792 115.867 99.2318 115.892 99.1872 115.914C99.1605 115.933 99.1301 115.945 99.0981 115.951C99.0829 115.953 99.0674 115.952 99.0524 115.949C99.0375 115.945 99.0234 115.939 99.011 115.93C98.9985 115.921 98.988 115.909 98.98 115.896C98.972 115.883 98.9667 115.868 98.9643 115.853V115.82C98.9643 115.747 99.0228 115.666 99.1399 115.574C99.2689 115.474 99.407 115.385 99.5523 115.31C99.7095 115.229 99.8715 115.157 100.037 115.095C100.164 115.05 100.298 115.026 100.433 115.023Z" fill="#231F20"/>
<path d="M105.502 118.166C105.709 118.222 105.9 118.325 106.06 118.467C106.222 118.608 106.343 118.79 106.411 118.994C106.458 118.959 106.511 118.932 106.567 118.916C106.599 118.908 106.632 118.902 106.665 118.899C106.683 118.898 106.701 118.904 106.716 118.914C106.731 118.925 106.743 118.94 106.748 118.958C106.765 118.999 106.773 119.044 106.77 119.089C106.764 119.135 106.741 119.178 106.706 119.209C106.655 119.26 106.59 119.298 106.52 119.317C106.546 119.456 106.558 119.597 106.556 119.738C106.552 120.12 106.476 120.498 106.333 120.853C106.19 121.23 105.987 121.582 105.734 121.895C105.487 122.202 105.187 122.462 104.847 122.662C104.516 122.859 104.138 122.963 103.752 122.963C103.026 122.963 102.662 122.635 102.662 121.979C102.663 121.71 102.728 121.445 102.852 121.207C102.986 120.948 103.158 120.712 103.362 120.504C103.579 120.287 103.825 120.099 104.092 119.947C104.356 119.792 104.636 119.667 104.928 119.576L105.764 119.323C105.746 119.09 105.636 118.873 105.458 118.721C105.281 118.568 105.05 118.492 104.817 118.509C104.635 118.504 104.453 118.525 104.276 118.57C104.202 118.594 104.127 118.614 104.05 118.629C104.034 118.629 104.023 118.593 104.014 118.52C104.01 118.461 104.01 118.401 104.014 118.342C104.014 118.303 104.045 118.278 104.109 118.269C104.407 118.213 104.7 118.131 104.984 118.024C105.26 117.923 105.519 117.779 105.75 117.598C105.974 117.428 106.163 117.217 106.308 116.976C106.451 116.721 106.524 116.433 106.517 116.14C106.517 115.644 106.325 115.396 105.943 115.396C105.695 115.387 105.451 115.452 105.24 115.583C105.048 115.71 104.903 115.897 104.828 116.115C104.787 116.218 104.736 116.317 104.677 116.41C104.655 116.451 104.623 116.485 104.584 116.509C104.545 116.533 104.5 116.546 104.454 116.547C104.382 116.536 104.313 116.505 104.257 116.458C104.215 116.429 104.182 116.39 104.16 116.345C104.138 116.299 104.128 116.249 104.131 116.199C104.136 116.103 104.17 116.012 104.229 115.937C104.32 115.795 104.435 115.669 104.569 115.566C104.712 115.451 104.867 115.352 105.031 115.271C105.198 115.187 105.373 115.121 105.553 115.073C105.723 115.027 105.898 115.004 106.074 115.003C106.802 115.003 107.165 115.33 107.163 115.984C107.161 116.192 107.116 116.398 107.032 116.589C106.94 116.806 106.821 117.011 106.678 117.199C106.526 117.406 106.349 117.593 106.152 117.757C105.954 117.921 105.736 118.058 105.502 118.166ZM105.812 119.666C105.484 119.729 105.163 119.823 104.853 119.944C104.567 120.05 104.299 120.199 104.059 120.387C103.833 120.557 103.643 120.77 103.501 121.014C103.361 121.27 103.291 121.559 103.298 121.851C103.298 122.347 103.49 122.595 103.872 122.595C104.169 122.602 104.462 122.516 104.708 122.349C104.951 122.18 105.159 121.964 105.318 121.714C105.489 121.447 105.619 121.156 105.703 120.85C105.788 120.548 105.832 120.236 105.834 119.922C105.836 119.839 105.828 119.756 105.812 119.674V119.666Z" fill="#231F20"/>
<path d="M109.647 115.023C109.775 115.023 109.839 115.078 109.839 115.193C109.837 115.288 109.819 115.382 109.786 115.471C109.75 115.574 109.7 115.7 109.635 115.842L109.078 117.235C109.165 117.171 109.258 117.117 109.357 117.074C109.483 117.027 109.618 117.004 109.753 117.007H110.388C110.537 117.009 110.685 116.985 110.826 116.934C110.88 116.92 110.931 116.895 110.975 116.86C111.019 116.825 111.056 116.781 111.082 116.731L111.525 115.558C111.561 115.469 111.6 115.379 111.645 115.279C111.674 115.237 111.711 115.201 111.754 115.173C111.816 115.129 111.882 115.09 111.951 115.059C112.016 115.025 112.088 115.006 112.16 115.003C112.188 115 112.217 115.008 112.239 115.025C112.261 115.042 112.276 115.067 112.28 115.095C112.283 115.104 112.283 115.114 112.28 115.123C112.244 115.275 112.197 115.424 112.138 115.569L110.998 118.587C110.951 118.707 110.912 118.816 110.878 118.91C110.856 118.969 110.84 119.03 110.831 119.092C110.831 119.186 110.87 119.234 110.951 119.234C111.007 119.234 111.063 119.219 111.113 119.192L111.294 119.108C111.352 119.08 111.408 119.053 111.455 119.025C111.484 119.005 111.516 118.991 111.55 118.983C111.578 118.979 111.606 118.986 111.628 119.003C111.651 119.019 111.666 119.044 111.67 119.072C111.673 119.082 111.673 119.093 111.67 119.103C111.67 119.175 111.617 119.25 111.508 119.331C111.392 119.417 111.265 119.489 111.132 119.546C110.991 119.61 110.844 119.662 110.695 119.702C110.583 119.736 110.468 119.757 110.352 119.763C110.201 119.763 110.123 119.682 110.123 119.524C110.124 119.424 110.134 119.325 110.154 119.228C110.176 119.133 110.206 119.04 110.243 118.949L110.878 117.258C110.651 117.405 110.384 117.481 110.112 117.475H109.574C109.402 117.468 109.23 117.505 109.075 117.581C108.97 117.628 108.884 117.708 108.83 117.81L108.273 119.203C108.213 119.34 108.134 119.468 108.039 119.582C107.992 119.635 107.934 119.678 107.869 119.706C107.804 119.734 107.733 119.747 107.662 119.744C107.632 119.746 107.602 119.738 107.577 119.72C107.552 119.702 107.535 119.676 107.529 119.646C107.559 119.495 107.604 119.346 107.662 119.203L108.643 116.519C108.742 116.296 108.818 116.063 108.872 115.825C108.872 115.753 108.838 115.717 108.777 115.717C108.739 115.72 108.701 115.733 108.668 115.753L108.524 115.825C108.476 115.848 108.432 115.873 108.393 115.895C108.368 115.914 108.339 115.926 108.309 115.931C108.294 115.934 108.278 115.934 108.263 115.93C108.249 115.927 108.234 115.92 108.222 115.911C108.21 115.902 108.2 115.89 108.192 115.877C108.184 115.864 108.18 115.849 108.178 115.834C108.175 115.823 108.175 115.811 108.178 115.8C108.178 115.744 108.231 115.669 108.34 115.577C108.462 115.471 108.594 115.378 108.735 115.299C108.891 115.21 109.053 115.133 109.22 115.07C109.359 115.03 109.503 115.014 109.647 115.023Z" fill="#231F20"/>
<path d="M113.278 118.523C113.35 119.162 113.675 119.482 114.251 119.482C114.753 119.49 115.238 119.301 115.602 118.955C115.73 118.827 115.811 118.763 115.842 118.763C115.931 118.763 115.976 118.81 115.976 118.908C115.957 119.011 115.901 119.104 115.82 119.17C115.591 119.404 115.317 119.587 115.014 119.709C114.71 119.831 114.385 119.888 114.058 119.877C113.848 119.892 113.636 119.861 113.438 119.787C113.241 119.712 113.061 119.596 112.913 119.445C112.637 119.114 112.497 118.689 112.523 118.258C112.526 117.858 112.603 117.462 112.751 117.091C112.899 116.712 113.108 116.36 113.37 116.048C113.619 115.748 113.921 115.495 114.262 115.304C114.587 115.12 114.955 115.024 115.329 115.025C116.054 115.025 116.419 115.354 116.419 116.009C116.413 116.338 116.317 116.659 116.14 116.937C115.953 117.246 115.711 117.518 115.427 117.74C115.123 117.982 114.784 118.175 114.421 118.311C114.056 118.451 113.669 118.523 113.278 118.523ZM114.2 118.049C114.49 117.957 114.762 117.816 115.003 117.631C115.23 117.457 115.42 117.239 115.56 116.99C115.703 116.735 115.776 116.447 115.772 116.154C115.772 115.658 115.58 115.41 115.195 115.41C114.906 115.408 114.622 115.493 114.382 115.655C114.138 115.824 113.93 116.04 113.771 116.291C113.599 116.558 113.467 116.849 113.381 117.155C113.29 117.456 113.243 117.768 113.242 118.083V118.191C113.567 118.192 113.891 118.141 114.2 118.041V118.049Z" fill="#231F20"/>
<path d="M119.607 115.023C119.749 115.024 119.89 115.035 120.031 115.053C120.168 115.072 120.304 115.1 120.438 115.137C120.549 115.167 120.653 115.218 120.744 115.287C120.779 115.312 120.808 115.344 120.829 115.381C120.85 115.418 120.862 115.459 120.864 115.502C120.864 115.767 120.772 115.898 120.585 115.898C120.504 115.899 120.423 115.879 120.352 115.839C120.281 115.799 120.221 115.742 120.178 115.672C120.09 115.575 119.979 115.501 119.856 115.457C119.733 115.413 119.6 115.4 119.471 115.418C119.18 115.415 118.895 115.503 118.657 115.669C118.415 115.84 118.208 116.056 118.046 116.305C117.874 116.569 117.742 116.859 117.656 117.163C117.567 117.461 117.52 117.771 117.517 118.083C117.517 118.262 117.536 118.44 117.573 118.615C117.603 118.774 117.662 118.926 117.745 119.064C117.826 119.197 117.941 119.306 118.078 119.379C118.216 119.453 118.37 119.488 118.526 119.482C118.64 119.479 118.753 119.459 118.86 119.42C118.983 119.38 119.101 119.329 119.214 119.267C119.329 119.203 119.435 119.127 119.532 119.039C119.62 118.96 119.693 118.866 119.746 118.76C119.866 118.537 119.975 118.425 120.07 118.425C120.165 118.425 120.167 118.476 120.167 118.581C120.159 118.729 120.111 118.872 120.028 118.994C119.926 119.153 119.796 119.294 119.646 119.409C119.469 119.546 119.272 119.657 119.064 119.738C118.832 119.831 118.583 119.877 118.334 119.875C118.125 119.875 117.919 119.833 117.729 119.749C117.545 119.667 117.379 119.548 117.241 119.401C117.103 119.251 116.995 119.076 116.923 118.885C116.847 118.684 116.81 118.47 116.812 118.255C116.812 117.842 116.894 117.433 117.052 117.051C117.205 116.673 117.42 116.323 117.687 116.015C117.94 115.723 118.244 115.479 118.584 115.296C118.898 115.122 119.249 115.028 119.607 115.023Z" fill="#231F20"/>
<path d="M123.86 119.206C123.64 119.427 123.376 119.601 123.085 119.717C122.795 119.833 122.484 119.887 122.171 119.877C121.282 119.877 120.839 119.512 120.839 118.788C120.845 118.592 120.883 118.399 120.953 118.216C121.031 118.009 121.13 117.81 121.249 117.623C121.367 117.434 121.508 117.259 121.667 117.102C121.811 116.959 121.976 116.841 122.157 116.751C122.135 116.659 122.124 116.566 122.124 116.472C122.122 116.276 122.173 116.084 122.271 115.914C122.375 115.734 122.513 115.577 122.678 115.452C122.859 115.316 123.059 115.209 123.272 115.134C123.503 115.054 123.746 115.014 123.991 115.014C124.927 115.014 125.384 115.471 125.384 116.383C125.369 116.589 125.321 116.791 125.242 116.982L124.576 118.821C124.539 118.912 124.507 119.005 124.482 119.1C124.479 119.116 124.479 119.133 124.483 119.149C124.487 119.165 124.494 119.18 124.504 119.194C124.514 119.207 124.526 119.218 124.541 119.226C124.555 119.235 124.571 119.24 124.587 119.242C124.599 119.245 124.612 119.245 124.624 119.242C124.668 119.237 124.71 119.222 124.749 119.2L124.936 119.117C125 119.089 125.058 119.061 125.109 119.033C125.143 119.011 125.182 118.997 125.223 118.991C125.287 118.991 125.32 119.03 125.32 119.111C125.313 119.157 125.296 119.201 125.27 119.239C125.244 119.278 125.21 119.31 125.17 119.334C125.058 119.416 124.94 119.487 124.816 119.549C124.684 119.615 124.546 119.669 124.403 119.71C124.301 119.743 124.194 119.763 124.086 119.769C123.902 119.769 123.807 119.682 123.807 119.507C123.813 119.405 123.831 119.304 123.86 119.206ZM123.729 116.419C123.442 116.419 123.16 116.495 122.912 116.639C122.658 116.787 122.429 116.975 122.235 117.196C122.044 117.412 121.887 117.655 121.77 117.918C121.662 118.144 121.602 118.39 121.594 118.64C121.583 118.858 121.626 119.076 121.72 119.273C121.806 119.415 121.998 119.487 122.302 119.487C122.596 119.485 122.883 119.407 123.138 119.262C123.404 119.11 123.641 118.911 123.838 118.676C124.038 118.44 124.199 118.174 124.317 117.888C124.434 117.624 124.495 117.34 124.498 117.052C124.498 116.631 124.242 116.419 123.732 116.419H123.729ZM122.723 116.397C123.077 116.196 123.478 116.092 123.885 116.096C124.059 116.09 124.233 116.123 124.392 116.193C124.537 116.267 124.666 116.37 124.771 116.494C124.788 116.43 124.799 116.374 124.808 116.327C124.81 116.283 124.81 116.24 124.808 116.196C124.812 116.086 124.792 115.977 124.748 115.876C124.705 115.775 124.64 115.686 124.557 115.613C124.372 115.459 124.137 115.38 123.896 115.391C123.589 115.38 123.29 115.488 123.06 115.692C122.957 115.78 122.873 115.888 122.812 116.01C122.751 116.131 122.715 116.264 122.706 116.399L122.723 116.397Z" fill="#231F20"/>
<defs>
<linearGradient id="paint0_linear" x1="42.9579" y1="44.5075" x2="115.293" y2="44.5075" gradientUnits="userSpaceOnUse">
<stop stop-color="#0080C8"/>
<stop offset="0.49" stop-color="#833594"/>
<stop offset="1" stop-color="#F2981F"/>
</linearGradient>
</defs>
</svg>
